<?xml version="1.0" standalone="yes"?>

<svg version="1.1" viewBox="0.0 0.0 780.0 680.0" fill="none" stroke="none" stroke-linecap="square" stroke-miterlimit="10" xmlns="http://www.w3.org/2000/svg" xmlns:xlink="http://www.w3.org/1999/xlink"><clipPath id="p.0"><path d="m0 0l780.0 0l0 680.0l-780.0 0l0 -680.0z" clip-rule="nonzero"></path></clipPath><g clip-path="url(#p.0)"><path fill="#000000" fill-opacity="0.0" d="m0 0l780.9239 0l0 680.12335l-780.9239 0z" fill-rule="nonzero"></path><path fill="#000000" d="m128.32611 192.0l143.93845 0l0 104.0l-143.93845 0z" fill-rule="nonzero"></path><path fill="#ffffff" d="m177.90471 230.875l0 -11.453125l4.296875 0q1.3125 0 2.109375 0.34375q0.796875 0.34375 1.234375 1.078125q0.453125 0.71875 0.453125 1.5q0 0.734375 -0.40625 1.390625q-0.390625 0.640625 -1.1875 1.046875q1.03125 0.296875 1.59375 1.03125q0.5625 0.734375 0.5625 1.734375q0 0.8125 -0.34375 1.5q-0.34375 0.6875 -0.84375 1.0625q-0.5 0.375 -1.25 0.578125q-0.75 0.1875 -1.84375 0.1875l-4.375 0zm1.515625 -6.640625l2.484375 0q1.0 0 1.4375 -0.140625q0.578125 -0.171875 0.875 -0.5625q0.296875 -0.40625 0.296875 -1.0q0 -0.578125 -0.28125 -1.0q-0.265625 -0.4375 -0.78125 -0.59375q-0.5 -0.171875 -1.734375 -0.171875l-2.296875 0l0 3.46875zm0 5.28125l2.859375 0q0.734375 0 1.03125 -0.046875q0.515625 -0.09375 0.859375 -0.3125q0.359375 -0.21875 0.578125 -0.640625q0.234375 -0.421875 0.234375 -0.96875q0 -0.640625 -0.328125 -1.109375q-0.328125 -0.46875 -0.90625 -0.65625q-0.578125 -0.203125 -1.671875 -0.203125l-2.65625 0l0 3.9375zm16.734375 -10.09375l1.515625 0l0 6.609375q0 1.734375 -0.390625 2.75q-0.390625 1.015625 -1.40625 1.65625q-1.015625 0.640625 -2.671875 0.640625q-1.609375 0 -2.640625 -0.5625q-1.015625 -0.5625 -1.453125 -1.609375q-0.4375 -1.046875 -0.4375 -2.875l0 -6.609375l1.515625 0l0 6.609375q0 1.484375 0.265625 2.203125q0.28125 0.703125 0.953125 1.09375q0.6875 0.375 1.65625 0.375q1.671875 0 2.375 -0.75q0.71875 -0.765625 0.71875 -2.921875l0 -6.609375zm4.3046875 11.453125l0 -11.453125l1.515625 0l0 11.453125l-1.515625 0zm4.1171875 0l0 -11.453125l1.515625 0l0 10.09375l5.640625 0l0 1.359375l-7.15625 0zm8.9609375 0l0 -11.453125l3.953125 0q1.328125 0 2.03125 0.15625q0.984375 0.234375 1.6875 0.828125q0.90625 0.765625 1.34375 1.953125q0.453125 1.1875 0.453125 2.71875q0 1.3125 -0.3125 2.328125q-0.296875 1.0 -0.78125 1.65625q-0.46875 0.65625 -1.03125 1.046875q-0.5625 0.375 -1.375 0.578125q-0.796875 0.1875 -1.828125 0.1875l-4.140625 0zm1.515625 -1.359375l2.453125 0q1.125 0 1.765625 -0.203125q0.65625 -0.21875 1.03125 -0.59375q0.546875 -0.546875 0.84375 -1.453125q0.296875 -0.90625 0.296875 -2.203125q0 -1.796875 -0.59375 -2.765625q-0.578125 -0.96875 -1.421875 -1.296875q-0.609375 -0.234375 -1.96875 -0.234375l-2.40625 0l0 8.75z" fill-rule="nonzero"></path><path fill="#ffffff" d="m167.48283 245.26562l1.515625 0.375q-0.46875 1.875 -1.71875 2.859375q-1.234375 0.984375 -3.015625 0.984375q-1.859375 0 -3.015625 -0.75q-1.15625 -0.765625 -1.765625 -2.1875q-0.609375 -1.4375 -0.609375 -3.078125q0 -1.796875 0.6875 -3.125q0.6875 -1.328125 1.9375 -2.015625q1.265625 -0.703125 2.78125 -0.703125q1.71875 0 2.890625 0.875q1.171875 0.875 1.640625 2.46875l-1.5 0.34375q-0.390625 -1.25 -1.15625 -1.8125q-0.75 -0.578125 -1.90625 -0.578125q-1.3125 0 -2.203125 0.640625q-0.890625 0.625 -1.25 1.703125q-0.359375 1.0625 -0.359375 2.1875q0 1.46875 0.421875 2.5625q0.4375 1.078125 1.328125 1.625q0.90625 0.53125 1.953125 0.53125q1.265625 0 2.140625 -0.734375q0.890625 -0.734375 1.203125 -2.171875zm2.9296875 -1.5625q0 -2.859375 1.53125 -4.46875q1.53125 -1.609375 3.953125 -1.609375q1.578125 0 2.84375 0.765625q1.28125 0.75 1.953125 2.109375q0.671875 1.34375 0.671875 3.0625q0 1.75 -0.703125 3.125q-0.703125 1.375 -2.0 2.09375q-1.28125 0.703125 -2.78125 0.703125q-1.609375 0 -2.890625 -0.78125q-1.265625 -0.796875 -1.921875 -2.140625q-0.65625 -1.359375 -0.65625 -2.859375zm1.5625 0.015625q0 2.078125 1.109375 3.265625q1.109375 1.1875 2.796875 1.1875q1.703125 0 2.8125 -1.203125q1.109375 -1.203125 1.109375 -3.40625q0 -1.40625 -0.484375 -2.4375q-0.46875 -1.046875 -1.375 -1.625q-0.90625 -0.578125 -2.046875 -0.578125q-1.609375 0 -2.765625 1.109375q-1.15625 1.109375 -1.15625 3.6875zm11.2890625 5.5625l0 -11.453125l2.28125 0l2.71875 8.109375q0.375 1.125 0.546875 1.6875q0.1875 -0.625 0.609375 -1.828125l2.734375 -7.96875l2.046875 0l0 11.453125l-1.46875 0l0 -9.59375l-3.328125 9.59375l-1.359375 0l-3.3125 -9.75l0 9.75l-1.46875 0zm13.328125 0l0 -11.453125l2.28125 0l2.71875 8.109375q0.375 1.125 0.546875 1.6875q0.1875 -0.625 0.609375 -1.828125l2.734375 -7.96875l2.046875 0l0 11.453125l-1.46875 0l0 -9.59375l-3.328125 9.59375l-1.359375 0l-3.3125 -9.75l0 9.75l-1.46875 0zm12.109375 0l4.40625 -11.453125l1.640625 0l4.6875 11.453125l-1.734375 0l-1.328125 -3.46875l-4.796875 0l-1.25 3.46875l-1.625 0zm3.3125 -4.703125l3.890625 0l-1.203125 -3.171875q-0.546875 -1.453125 -0.8125 -2.375q-0.21875 1.09375 -0.609375 2.1875l-1.265625 3.359375zm8.609375 4.703125l0 -11.453125l1.5625 0l6.015625 8.984375l0 -8.984375l1.453125 0l0 11.453125l-1.5625 0l-6.015625 -9.0l0 9.0l-1.453125 0zm11.5703125 0l0 -11.453125l3.953125 0q1.328125 0 2.03125 0.15625q0.984375 0.234375 1.6875 0.828125q0.90625 0.765625 1.34375 1.953125q0.453125 1.1875 0.453125 2.71875q0 1.3125 -0.3125 2.328125q-0.296875 1.0 -0.78125 1.65625q-0.46875 0.65625 -1.03125 1.046875q-0.5625 0.375 -1.375 0.578125q-0.796875 0.1875 -1.828125 0.1875l-4.140625 0zm1.515625 -1.359375l2.453125 0q1.125 0 1.765625 -0.203125q0.65625 -0.21875 1.03125 -0.59375q0.546875 -0.546875 0.84375 -1.453125q0.296875 -0.90625 0.296875 -2.203125q0 -1.796875 -0.59375 -2.765625q-0.578125 -0.96875 -1.421875 -1.296875q-0.609375 -0.234375 -1.96875 -0.234375l-2.40625 0l0 8.75z" fill-rule="nonzero"></path><path fill="#ffffff" d="m164.12346 267.6875l0 -11.453125l4.296875 0q1.3125 0 2.109375 0.34375q0.796875 0.34375 1.234375 1.078125q0.453125 0.71875 0.453125 1.5q0 0.734375 -0.40625 1.390625q-0.390625 0.640625 -1.1875 1.046875q1.03125 0.296875 1.59375 1.03125q0.5625 0.734375 0.5625 1.734375q0 0.8125 -0.34375 1.5q-0.34375 0.6875 -0.84375 1.0625q-0.5 0.375 -1.25 0.578125q-0.75 0.1875 -1.84375 0.1875l-4.375 0zm1.515625 -6.640625l2.484375 0q1.0 0 1.4375 -0.140625q0.578125 -0.171875 0.875 -0.5625q0.296875 -0.40625 0.296875 -1.0q0 -0.578125 -0.28125 -1.0q-0.265625 -0.4375 -0.78125 -0.59375q-0.5 -0.171875 -1.734375 -0.171875l-2.296875 0l0 3.46875zm0 5.28125l2.859375 0q0.734375 0 1.03125 -0.046875q0.515625 -0.09375 0.859375 -0.3125q0.359375 -0.21875 0.578125 -0.640625q0.234375 -0.421875 0.234375 -0.96875q0 -0.640625 -0.328125 -1.109375q-0.328125 -0.46875 -0.90625 -0.65625q-0.578125 -0.203125 -1.671875 -0.203125l-2.65625 0l0 3.9375zm9.484375 1.359375l0 -11.453125l1.515625 0l0 11.453125l-1.515625 0zm4.1640625 0l0 -11.453125l1.5625 0l6.015625 8.984375l0 -8.984375l1.453125 0l0 11.453125l-1.5625 0l-6.015625 -9.0l0 9.0l-1.453125 0zm10.3046875 0l4.40625 -11.453125l1.640625 0l4.6875 11.453125l-1.734375 0l-1.328125 -3.46875l-4.796875 0l-1.25 3.46875l-1.625 0zm3.3125 -4.703125l3.890625 0l-1.203125 -3.171875q-0.546875 -1.453125 -0.8125 -2.375q-0.21875 1.09375 -0.609375 2.1875l-1.265625 3.359375zm8.65625 4.703125l0 -11.453125l5.078125 0q1.53125 0 2.328125 0.3125q0.796875 0.296875 1.265625 1.078125q0.484375 0.78125 0.484375 1.734375q0 1.21875 -0.796875 2.0625q-0.78125 0.828125 -2.4375 1.046875q0.609375 0.296875 0.921875 0.578125q0.65625 0.609375 1.25 1.515625l2.0 3.125l-1.90625 0l-1.515625 -2.390625q-0.671875 -1.03125 -1.109375 -1.578125q-0.421875 -0.546875 -0.765625 -0.765625q-0.328125 -0.21875 -0.6875 -0.296875q-0.25 -0.0625 -0.84375 -0.0625l-1.75 0l0 5.09375l-1.515625 0zm1.515625 -6.40625l3.25 0q1.046875 0 1.625 -0.203125q0.59375 -0.21875 0.890625 -0.6875q0.3125 -0.484375 0.3125 -1.03125q0 -0.8125 -0.59375 -1.328125q-0.59375 -0.53125 -1.859375 -0.53125l-3.625 0l0 3.78125zm10.2734375 6.40625l0 -11.453125l1.515625 0l0 11.453125l-1.515625 0zm4.2109375 0l0 -11.453125l8.28125 0l0 1.34375l-6.765625 0l0 3.515625l6.34375 0l0 1.34375l-6.34375 0l0 3.890625l7.03125 0l0 1.359375l-8.546875 0zm10.125 -3.6875l1.4375 -0.125q0.09375 0.859375 0.46875 1.421875q0.375 0.546875 1.15625 0.890625q0.78125 0.328125 1.75 0.328125q0.875 0 1.53125 -0.25q0.671875 -0.265625 0.984375 -0.703125q0.328125 -0.453125 0.328125 -0.984375q0 -0.546875 -0.3125 -0.9375q-0.3125 -0.40625 -1.03125 -0.6875q-0.453125 -0.171875 -2.03125 -0.546875q-1.578125 -0.390625 -2.21875 -0.71875q-0.8125 -0.4375 -1.21875 -1.0625q-0.40625 -0.640625 -0.40625 -1.4375q0 -0.859375 0.484375 -1.609375q0.5 -0.765625 1.4375 -1.15625q0.953125 -0.390625 2.109375 -0.390625q1.28125 0 2.25 0.421875q0.96875 0.40625 1.484375 1.203125q0.53125 0.796875 0.578125 1.796875l-1.453125 0.109375q-0.125 -1.078125 -0.796875 -1.625q-0.671875 -0.5625 -2.0 -0.5625q-1.375 0 -2.0 0.5q-0.625 0.5 -0.625 1.21875q0 0.609375 0.4375 1.015625q0.4375 0.390625 2.28125 0.8125q1.859375 0.421875 2.546875 0.734375q1.0 0.453125 1.46875 1.171875q0.484375 0.703125 0.484375 1.625q0 0.90625 -0.53125 1.71875q-0.515625 0.8125 -1.5 1.265625q-0.984375 0.453125 -2.203125 0.453125q-1.5625 0 -2.609375 -0.453125q-1.046875 -0.46875 -1.65625 -1.375q-0.59375 -0.90625 -0.625 -2.0625z" fill-rule="nonzero"></path><path fill="#000000" fill-opacity="0.0" d="m304.3261 80.0l-104.0 0l0 112.0" fill-rule="nonzero"></path><path stroke="#000000" stroke-width="2.0" stroke-linejoin="round" stroke-linecap="butt" d="m304.3261 80.0l-104.0 0l0 100.0" fill-rule="evenodd"></path><path fill="#000000" stroke="#000000" stroke-width="2.0" stroke-linecap="butt" d="m197.02264 180.0l3.3034668 9.076202l3.3034668 -9.076202z" fill-rule="evenodd"></path><path fill="#000000" d="m440.3261 192.0l143.93848 0l0 104.0l-143.93848 0z" fill-rule="nonzero"></path><path fill="#ffffff" d="m489.90472 230.875l0 -11.453125l4.296875 0q1.3125 0 2.109375 0.34375q0.796875 0.34375 1.234375 1.078125q0.453125 0.71875 0.453125 1.5q0 0.734375 -0.40625 1.390625q-0.390625 0.640625 -1.1875 1.046875q1.03125 0.296875 1.59375 1.03125q0.5625 0.734375 0.5625 1.734375q0 0.8125 -0.34375 1.5q-0.34375 0.6875 -0.84375 1.0625q-0.5 0.375 -1.25 0.578125q-0.75 0.1875 -1.84375 0.1875l-4.375 0zm1.515625 -6.640625l2.484375 0q1.0 0 1.4375 -0.140625q0.578125 -0.171875 0.875 -0.5625q0.296875 -0.40625 0.296875 -1.0q0 -0.578125 -0.28125 -1.0q-0.265625 -0.4375 -0.78125 -0.59375q-0.5 -0.171875 -1.734375 -0.171875l-2.296875 0l0 3.46875zm0 5.28125l2.859375 0q0.734375 0 1.03125 -0.046875q0.515625 -0.09375 0.859375 -0.3125q0.359375 -0.21875 0.578125 -0.640625q0.234375 -0.421875 0.234375 -0.96875q0 -0.640625 -0.328125 -1.109375q-0.328125 -0.46875 -0.90625 -0.65625q-0.578125 -0.203125 -1.671875 -0.203125l-2.65625 0l0 3.9375zm16.734375 -10.09375l1.515625 0l0 6.609375q0 1.734375 -0.390625 2.75q-0.390625 1.015625 -1.40625 1.65625q-1.015625 0.640625 -2.671875 0.640625q-1.609375 0 -2.640625 -0.5625q-1.015625 -0.5625 -1.453125 -1.609375q-0.4375 -1.046875 -0.4375 -2.875l0 -6.609375l1.515625 0l0 6.609375q0 1.484375 0.265625 2.203125q0.28125 0.703125 0.953125 1.09375q0.6875 0.375 1.65625 0.375q1.671875 0 2.375 -0.75q0.71875 -0.765625 0.71875 -2.921875l0 -6.609375zm4.3046875 11.453125l0 -11.453125l1.515625 0l0 11.453125l-1.515625 0zm4.1171875 0l0 -11.453125l1.515625 0l0 10.09375l5.640625 0l0 1.359375l-7.15625 0zm8.9609375 0l0 -11.453125l3.953125 0q1.328125 0 2.03125 0.15625q0.984375 0.234375 1.6875 0.828125q0.90625 0.765625 1.34375 1.953125q0.453125 1.1875 0.453125 2.71875q0 1.3125 -0.3125 2.328125q-0.296875 1.0 -0.78125 1.65625q-0.46875 0.65625 -1.03125 1.046875q-0.5625 0.375 -1.375 0.578125q-0.796875 0.1875 -1.828125 0.1875l-4.140625 0zm1.515625 -1.359375l2.453125 0q1.125 0 1.765625 -0.203125q0.65625 -0.21875 1.03125 -0.59375q0.546875 -0.546875 0.84375 -1.453125q0.296875 -0.90625 0.296875 -2.203125q0 -1.796875 -0.59375 -2.765625q-0.578125 -0.96875 -1.421875 -1.296875q-0.609375 -0.234375 -1.96875 -0.234375l-2.40625 0l0 8.75z" fill-rule="nonzero"></path><path fill="#ffffff" d="m479.52972 249.28125l-3.03125 -11.453125l1.546875 0l1.75 7.5q0.28125 1.1875 0.484375 2.34375q0.4375 -1.828125 0.515625 -2.109375l2.171875 -7.734375l1.828125 0l1.640625 5.796875q0.625 2.15625 0.890625 4.046875q0.21875 -1.078125 0.578125 -2.484375l1.796875 -7.359375l1.515625 0l-3.140625 11.453125l-1.453125 0l-2.421875 -8.734375q-0.296875 -1.09375 -0.359375 -1.34375q-0.171875 0.796875 -0.328125 1.34375l-2.4375 8.734375l-1.546875 0zm12.6484375 -5.578125q0 -2.859375 1.53125 -4.46875q1.53125 -1.609375 3.953125 -1.609375q1.578125 0 2.84375 0.765625q1.28125 0.75 1.953125 2.109375q0.671875 1.34375 0.671875 3.0625q0 1.75 -0.703125 3.125q-0.703125 1.375 -2.0 2.09375q-1.28125 0.703125 -2.78125 0.703125q-1.609375 0 -2.890625 -0.78125q-1.265625 -0.796875 -1.921875 -2.140625q-0.65625 -1.359375 -0.65625 -2.859375zm1.5625 0.015625q0 2.078125 1.109375 3.265625q1.109375 1.1875 2.796875 1.1875q1.703125 0 2.8125 -1.203125q1.109375 -1.203125 1.109375 -3.40625q0 -1.40625 -0.484375 -2.4375q-0.46875 -1.046875 -1.375 -1.625q-0.90625 -0.578125 -2.046875 -0.578125q-1.609375 0 -2.765625 1.109375q-1.15625 1.109375 -1.15625 3.6875zm11.3671875 5.5625l0 -11.453125l5.078125 0q1.53125 0 2.328125 0.3125q0.796875 0.296875 1.265625 1.078125q0.484375 0.78125 0.484375 1.734375q0 1.21875 -0.796875 2.0625q-0.78125 0.828125 -2.4375 1.046875q0.609375 0.296875 0.921875 0.578125q0.65625 0.609375 1.25 1.515625l2.0 3.125l-1.90625 0l-1.515625 -2.390625q-0.671875 -1.03125 -1.109375 -1.578125q-0.421875 -0.546875 -0.765625 -0.765625q-0.328125 -0.21875 -0.6875 -0.296875q-0.25 -0.0625 -0.84375 -0.0625l-1.75 0l0 5.09375l-1.515625 0zm1.515625 -6.40625l3.25 0q1.046875 0 1.625 -0.203125q0.59375 -0.21875 0.890625 -0.6875q0.3125 -0.484375 0.3125 -1.03125q0 -0.8125 -0.59375 -1.328125q-0.59375 -0.53125 -1.859375 -0.53125l-3.625 0l0 3.78125zm9.9453125 6.40625l0 -11.453125l1.515625 0l0 5.671875l5.6875 -5.671875l2.0625 0l-4.8125 4.640625l5.015625 6.8125l-2.0 0l-4.078125 -5.796875l-1.875 1.828125l0 3.96875l-1.515625 0zm10.765625 0l0 -11.453125l8.28125 0l0 1.34375l-6.765625 0l0 3.515625l6.34375 0l0 1.34375l-6.34375 0l0 3.890625l7.03125 0l0 1.359375l-8.546875 0zm10.671875 0l0 -11.453125l5.078125 0q1.53125 0 2.328125 0.3125q0.796875 0.296875 1.265625 1.078125q0.484375 0.78125 0.484375 1.734375q0 1.21875 -0.796875 2.0625q-0.78125 0.828125 -2.4375 1.046875q0.609375 0.296875 0.921875 0.578125q0.65625 0.609375 1.25 1.515625l2.0 3.125l-1.90625 0l-1.515625 -2.390625q-0.671875 -1.03125 -1.109375 -1.578125q-0.421875 -0.546875 -0.765625 -0.765625q-0.328125 -0.21875 -0.6875 -0.296875q-0.25 -0.0625 -0.84375 -0.0625l-1.75 0l0 5.09375l-1.515625 0zm1.515625 -6.40625l3.25 0q1.046875 0 1.625 -0.203125q0.59375 -0.21875 0.890625 -0.6875q0.3125 -0.484375 0.3125 -1.03125q0 -0.8125 -0.59375 -1.328125q-0.59375 -0.53125 -1.859375 -0.53125l-3.625 0l0 3.78125z" fill-rule="nonzero"></path><path fill="#ffffff" d="m483.68207 267.6875l0 -11.453125l4.296875 0q1.3125 0 2.109375 0.34375q0.796875 0.34375 1.234375 1.078125q0.453125 0.71875 0.453125 1.5q0 0.734375 -0.40625 1.390625q-0.390625 0.640625 -1.1875 1.046875q1.03125 0.296875 1.59375 1.03125q0.5625 0.734375 0.5625 1.734375q0 0.8125 -0.34375 1.5q-0.34375 0.6875 -0.84375 1.0625q-0.5 0.375 -1.25 0.578125q-0.75 0.1875 -1.84375 0.1875l-4.375 0zm1.515625 -6.640625l2.484375 0q1.0 0 1.4375 -0.140625q0.578125 -0.171875 0.875 -0.5625q0.296875 -0.40625 0.296875 -1.0q0 -0.578125 -0.28125 -1.0q-0.265625 -0.4375 -0.78125 -0.59375q-0.5 -0.171875 -1.734375 -0.171875l-2.296875 0l0 3.46875zm0 5.28125l2.859375 0q0.734375 0 1.03125 -0.046875q0.515625 -0.09375 0.859375 -0.3125q0.359375 -0.21875 0.578125 -0.640625q0.234375 -0.421875 0.234375 -0.96875q0 -0.640625 -0.328125 -1.109375q-0.328125 -0.46875 -0.90625 -0.65625q-0.578125 -0.203125 -1.671875 -0.203125l-2.65625 0l0 3.9375zm9.484375 1.359375l0 -11.453125l1.515625 0l0 11.453125l-1.515625 0zm4.1640625 0l0 -11.453125l1.5625 0l6.015625 8.984375l0 -8.984375l1.453125 0l0 11.453125l-1.5625 0l-6.015625 -9.0l0 9.0l-1.453125 0zm10.3046875 0l4.40625 -11.453125l1.640625 0l4.6875 11.453125l-1.734375 0l-1.328125 -3.46875l-4.796875 0l-1.25 3.46875l-1.625 0zm3.3125 -4.703125l3.890625 0l-1.203125 -3.171875q-0.546875 -1.453125 -0.8125 -2.375q-0.21875 1.09375 -0.609375 2.1875l-1.265625 3.359375zm8.65625 4.703125l0 -11.453125l5.078125 0q1.53125 0 2.328125 0.3125q0.796875 0.296875 1.265625 1.078125q0.484375 0.78125 0.484375 1.734375q0 1.21875 -0.796875 2.0625q-0.78125 0.828125 -2.4375 1.046875q0.609375 0.296875 0.921875 0.578125q0.65625 0.609375 1.25 1.515625l2.0 3.125l-1.90625 0l-1.515625 -2.390625q-0.671875 -1.03125 -1.109375 -1.578125q-0.421875 -0.546875 -0.765625 -0.765625q-0.328125 -0.21875 -0.6875 -0.296875q-0.25 -0.0625 -0.84375 -0.0625l-1.75 0l0 5.09375l-1.515625 0zm1.515625 -6.40625l3.25 0q1.046875 0 1.625 -0.203125q0.59375 -0.21875 0.890625 -0.6875q0.3125 -0.484375 0.3125 -1.03125q0 -0.8125 -0.59375 -1.328125q-0.59375 -0.53125 -1.859375 -0.53125l-3.625 0l0 3.78125zm13.2421875 6.40625l0 -4.859375l-4.421875 -6.59375l1.84375 0l2.265625 3.453125q0.625 0.96875 1.15625 1.9375q0.515625 -0.90625 1.25 -2.03125l2.21875 -3.359375l1.765625 0l-4.5625 6.59375l0 4.859375l-1.515625 0z" fill-rule="nonzero"></path><path fill="#000000" fill-opacity="0.0" d="m408.3261 80.0l104.0 0l0 112.0" fill-rule="nonzero"></path><path stroke="#000000" stroke-width="2.0" stroke-linejoin="round" stroke-linecap="butt" d="m408.3261 80.0l104.0 0l0 100.0" fill-rule="evenodd"></path><path fill="#000000" stroke="#000000" stroke-width="2.0" stroke-linecap="butt" d="m509.02264 180.0l3.3034668 9.076202l3.3034668 -9.076202z" fill-rule="evenodd"></path><path fill="#000000" fill-opacity="0.0" d="m512.29535 296.0l0.03149414 96.0" fill-rule="nonzero"></path><path stroke="#000000" stroke-width="2.0" stroke-linejoin="round" stroke-linecap="butt" d="m512.29535 296.0l0.02758789 84.0" fill-rule="evenodd"></path><path fill="#000000" stroke="#000000" stroke-width="2.0" stroke-linecap="butt" d="m509.01944 380.0011l3.306427 9.075104l3.300537 -9.0772705z" fill-rule="evenodd"></path><path fill="#000000" d="m440.38763 392.0l143.93848 0l0 104.0l-143.93848 0z" fill-rule="nonzero"></path><path fill="#ffffff" d="m481.13422 440.07812l0 -11.453125l3.953125 0q1.328125 0 2.03125 0.15625q0.984375 0.234375 1.6875 0.828125q0.90625 0.765625 1.34375 1.953125q0.453125 1.1875 0.453125 2.71875q0 1.3125 -0.3125 2.328125q-0.296875 1.0 -0.78125 1.65625q-0.46875 0.65625 -1.03125 1.046875q-0.5625 0.375 -1.375 0.578125q-0.796875 0.1875 -1.828125 0.1875l-4.140625 0zm1.515625 -1.359375l2.453125 0q1.125 0 1.765625 -0.203125q0.65625 -0.21875 1.03125 -0.59375q0.546875 -0.546875 0.84375 -1.453125q0.296875 -0.90625 0.296875 -2.203125q0 -1.796875 -0.59375 -2.765625q-0.578125 -0.96875 -1.421875 -1.296875q-0.609375 -0.234375 -1.96875 -0.234375l-2.40625 0l0 8.75zm10.0703125 1.359375l0 -11.453125l8.28125 0l0 1.34375l-6.765625 0l0 3.515625l6.34375 0l0 1.34375l-6.34375 0l0 3.890625l7.03125 0l0 1.359375l-8.546875 0zm10.640625 0l0 -11.453125l4.328125 0q1.140625 0 1.734375 0.109375q0.84375 0.140625 1.40625 0.53125q0.578125 0.390625 0.921875 1.109375q0.359375 0.703125 0.359375 1.5625q0 1.453125 -0.9375 2.46875q-0.921875 1.015625 -3.359375 1.015625l-2.9375 0l0 4.65625l-1.515625 0zm1.515625 -6.015625l2.96875 0q1.46875 0 2.078125 -0.546875q0.625 -0.546875 0.625 -1.53125q0 -0.71875 -0.375 -1.234375q-0.359375 -0.515625 -0.953125 -0.671875q-0.375 -0.109375 -1.40625 -0.109375l-2.9375 0l0 4.09375zm9.09375 6.015625l0 -11.453125l1.515625 0l0 10.09375l5.640625 0l0 1.359375l-7.15625 0zm8.5078125 -5.578125q0 -2.859375 1.53125 -4.46875q1.53125 -1.609375 3.953125 -1.609375q1.578125 0 2.84375 0.765625q1.28125 0.75 1.953125 2.109375q0.671875 1.34375 0.671875 3.0625q0 1.75 -0.703125 3.125q-0.703125 1.375 -2.0 2.09375q-1.28125 0.703125 -2.78125 0.703125q-1.609375 0 -2.890625 -0.78125q-1.265625 -0.796875 -1.921875 -2.140625q-0.65625 -1.359375 -0.65625 -2.859375zm1.5625 0.015625q0 2.078125 1.109375 3.265625q1.109375 1.1875 2.796875 1.1875q1.703125 0 2.8125 -1.203125q1.109375 -1.203125 1.109375 -3.40625q0 -1.40625 -0.484375 -2.4375q-0.46875 -1.046875 -1.375 -1.625q-0.90625 -0.578125 -2.046875 -0.578125q-1.609375 0 -2.765625 1.109375q-1.15625 1.109375 -1.15625 3.6875zm14.5703125 5.5625l0 -4.859375l-4.421875 -6.59375l1.84375 0l2.265625 3.453125q0.625 0.96875 1.15625 1.9375q0.515625 -0.90625 1.25 -2.03125l2.21875 -3.359375l1.765625 0l-4.5625 6.59375l0 4.859375l-1.515625 0z" fill-rule="nonzero"></path><path fill="#ffffff" d="m476.185 458.48438l0 -11.453125l4.296875 0q1.3125 0 2.109375 0.34375q0.796875 0.34375 1.234375 1.078125q0.453125 0.71875 0.453125 1.5q0 0.734375 -0.40625 1.390625q-0.390625 0.640625 -1.1875 1.046875q1.03125 0.296875 1.59375 1.03125q0.5625 0.734375 0.5625 1.734375q0 0.8125 -0.34375 1.5q-0.34375 0.6875 -0.84375 1.0625q-0.5 0.375 -1.25 0.578125q-0.75 0.1875 -1.84375 0.1875l-4.375 0zm1.515625 -6.640625l2.484375 0q1.0 0 1.4375 -0.140625q0.578125 -0.171875 0.875 -0.5625q0.296875 -0.40625 0.296875 -1.0q0 -0.578125 -0.28125 -1.0q-0.265625 -0.4375 -0.78125 -0.59375q-0.5 -0.171875 -1.734375 -0.171875l-2.296875 0l0 3.46875zm0 5.28125l2.859375 0q0.734375 0 1.03125 -0.046875q0.515625 -0.09375 0.859375 -0.3125q0.359375 -0.21875 0.578125 -0.640625q0.234375 -0.421875 0.234375 -0.96875q0 -0.640625 -0.328125 -1.109375q-0.328125 -0.46875 -0.90625 -0.65625q-0.578125 -0.203125 -1.671875 -0.203125l-2.65625 0l0 3.9375zm9.484375 1.359375l0 -11.453125l1.515625 0l0 11.453125l-1.515625 0zm4.1640625 0l0 -11.453125l1.5625 0l6.015625 8.984375l0 -8.984375l1.453125 0l0 11.453125l-1.5625 0l-6.015625 -9.0l0 9.0l-1.453125 0zm10.3046875 0l4.40625 -11.453125l1.640625 0l4.6875 11.453125l-1.734375 0l-1.328125 -3.46875l-4.796875 0l-1.25 3.46875l-1.625 0zm3.3125 -4.703125l3.890625 0l-1.203125 -3.171875q-0.546875 -1.453125 -0.8125 -2.375q-0.21875 1.09375 -0.609375 2.1875l-1.265625 3.359375zm8.65625 4.703125l0 -11.453125l5.078125 0q1.53125 0 2.328125 0.3125q0.796875 0.296875 1.265625 1.078125q0.484375 0.78125 0.484375 1.734375q0 1.21875 -0.796875 2.0625q-0.78125 0.828125 -2.4375 1.046875q0.609375 0.296875 0.921875 0.578125q0.65625 0.609375 1.25 1.515625l2.0 3.125l-1.90625 0l-1.515625 -2.390625q-0.671875 -1.03125 -1.109375 -1.578125q-0.421875 -0.546875 -0.765625 -0.765625q-0.328125 -0.21875 -0.6875 -0.296875q-0.25 -0.0625 -0.84375 -0.0625l-1.75 0l0 5.09375l-1.515625 0zm1.515625 -6.40625l3.25 0q1.046875 0 1.625 -0.203125q0.59375 -0.21875 0.890625 -0.6875q0.3125 -0.484375 0.3125 -1.03125q0 -0.8125 -0.59375 -1.328125q-0.59375 -0.53125 -1.859375 -0.53125l-3.625 0l0 3.78125zm10.2734375 6.40625l0 -11.453125l1.515625 0l0 11.453125l-1.515625 0zm4.2109375 0l0 -11.453125l8.28125 0l0 1.34375l-6.765625 0l0 3.515625l6.34375 0l0 1.34375l-6.34375 0l0 3.890625l7.03125 0l0 1.359375l-8.546875 0zm10.125 -3.6875l1.4375 -0.125q0.09375 0.859375 0.46875 1.421875q0.375 0.546875 1.15625 0.890625q0.78125 0.328125 1.75 0.328125q0.875 0 1.53125 -0.25q0.671875 -0.265625 0.984375 -0.703125q0.328125 -0.453125 0.328125 -0.984375q0 -0.546875 -0.3125 -0.9375q-0.3125 -0.40625 -1.03125 -0.6875q-0.453125 -0.171875 -2.03125 -0.546875q-1.578125 -0.390625 -2.21875 -0.71875q-0.8125 -0.4375 -1.21875 -1.0625q-0.40625 -0.640625 -0.40625 -1.4375q0 -0.859375 0.484375 -1.609375q0.5 -0.765625 1.4375 -1.15625q0.953125 -0.390625 2.109375 -0.390625q1.28125 0 2.25 0.421875q0.96875 0.40625 1.484375 1.203125q0.53125 0.796875 0.578125 1.796875l-1.453125 0.109375q-0.125 -1.078125 -0.796875 -1.625q-0.671875 -0.5625 -2.0 -0.5625q-1.375 0 -2.0 0.5q-0.625 0.5 -0.625 1.21875q0 0.609375 0.4375 1.015625q0.4375 0.390625 2.28125 0.8125q1.859375 0.421875 2.546875 0.734375q1.0 0.453125 1.46875 1.171875q0.484375 0.703125 0.484375 1.625q0 0.90625 -0.53125 1.71875q-0.515625 0.8125 -1.5 1.265625q-0.984375 0.453125 -2.203125 0.453125q-1.5625 0 -2.609375 -0.453125q-1.046875 -0.46875 -1.65625 -1.375q-0.59375 -0.90625 -0.625 -2.0625z" fill-rule="nonzero"></path><path fill="#000000" d="m304.3261 599.9685l0 0c0 -35.363647 28.258942 -64.031494 63.118103 -64.031494l0 0c16.73996 0 32.79431 6.746155 44.631256 18.754395c11.836945 12.00824 18.486877 28.29486 18.486877 45.2771l0 0c0 35.363586 -28.258942 64.031494 -63.118134 64.031494l0 0c-34.85916 0 -63.118103 -28.667908 -63.118103 -64.031494z" fill-rule="nonzero"></path><path fill="#ffffff" d="m351.8192 605.24976l0 -11.453125l8.28125 0l0 1.34375l-6.765625 0l0 3.515625l6.34375 0l0 1.34375l-6.34375 0l0 3.890625l7.03125 0l0 1.359375l-8.546875 0zm10.625 0l0 -11.453125l1.5625 0l6.015625 8.984375l0 -8.984375l1.453125 0l0 11.453125l-1.5625 0l-6.015625 -9.0l0 9.0l-1.453125 0zm11.5703125 0l0 -11.453125l3.953125 0q1.328125 0 2.03125 0.15625q0.984375 0.234375 1.6875 0.828125q0.90625 0.765625 1.34375 1.953125q0.453125 1.1875 0.453125 2.71875q0 1.3125 -0.3125 2.328125q-0.296875 1.0 -0.78125 1.65625q-0.46875 0.65625 -1.03125 1.046875q-0.5625 0.375 -1.375 0.578125q-0.796875 0.1875 -1.828125 0.1875l-4.140625 0zm1.515625 -1.359375l2.453125 0q1.125 0 1.765625 -0.203125q0.65625 -0.21875 1.03125 -0.59375q0.546875 -0.546875 0.84375 -1.453125q0.296875 -0.90625 0.296875 -2.203125q0 -1.796875 -0.59375 -2.765625q-0.578125 -0.96875 -1.421875 -1.296875q-0.609375 -0.234375 -1.96875 -0.234375l-2.40625 0l0 8.75z" fill-rule="nonzero"></path><path fill="#000000" d="m290.0899 80.031494l0 0c0 -35.363617 28.258942 -64.031494 63.118103 -64.031494l0 0c16.73996 0 32.79431 6.7461567 44.631226 18.75439c11.836945 12.008236 18.486877 28.294895 18.486877 45.277103l0 0c0 35.363617 -28.258942 64.031494 -63.118103 64.031494l0 0c-34.85916 0 -63.118103 -28.667877 -63.118103 -64.031494z" fill-rule="nonzero"></path><path fill="#ffffff" d="m329.48535 85.312744l0 -11.453125l4.296875 0q1.3125 0 2.109375 0.34375q0.796875 0.34375 1.234375 1.078125q0.453125 0.71875 0.453125 1.5q0 0.734375 -0.40625 1.390625q-0.390625 0.640625 -1.1875 1.046875q1.03125 0.296875 1.59375 1.03125q0.5625 0.734375 0.5625 1.734375q0 0.8125 -0.34375 1.5q-0.34375 0.6875 -0.84375 1.0625q-0.5 0.375 -1.25 0.578125q-0.75 0.1875 -1.84375 0.1875l-4.375 0zm1.515625 -6.640625l2.484375 0q1.0 0 1.4375 -0.140625q0.578125 -0.171875 0.875 -0.5625q0.296875 -0.40625 0.296875 -1.0q0 -0.578125 -0.28125 -1.0q-0.265625 -0.4375 -0.78125 -0.59375q-0.5 -0.171875 -1.734375 -0.171875l-2.296875 0l0 3.46875zm0 5.28125l2.859375 0q0.734375 0 1.03125 -0.046875q0.515625 -0.09375 0.859375 -0.3125q0.359375 -0.21875 0.578125 -0.640625q0.234375 -0.421875 0.234375 -0.96875q0 -0.640625 -0.328125 -1.109375q-0.328125 -0.46875 -0.90625 -0.65625q-0.578125 -0.203125 -1.671875 -0.203125l-2.65625 0l0 3.9375zm9.25 1.359375l0 -11.453125l8.28125 0l0 1.34375l-6.765625 0l0 3.515625l6.34375 0l0 1.34375l-6.34375 0l0 3.890625l7.03125 0l0 1.359375l-8.546875 0zm16.0 -4.5l0 -1.34375l4.859375 0l0 4.25q-1.125 0.890625 -2.3125 1.34375q-1.1875 0.453125 -2.4375 0.453125q-1.6875 0 -3.0625 -0.71875q-1.375 -0.734375 -2.078125 -2.09375q-0.703125 -1.375 -0.703125 -3.0625q0 -1.671875 0.6875 -3.125q0.703125 -1.453125 2.015625 -2.15625q1.3125 -0.703125 3.03125 -0.703125q1.234375 0 2.234375 0.40625q1.015625 0.40625 1.578125 1.125q0.578125 0.71875 0.875 1.875l-1.375 0.375q-0.25 -0.875 -0.640625 -1.375q-0.375 -0.5 -1.09375 -0.796875q-0.703125 -0.3125 -1.578125 -0.3125q-1.03125 0 -1.796875 0.328125q-0.75 0.3125 -1.21875 0.828125q-0.46875 0.515625 -0.71875 1.125q-0.4375 1.0625 -0.4375 2.3125q0 1.53125 0.515625 2.5625q0.53125 1.03125 1.53125 1.53125q1.015625 0.5 2.15625 0.5q0.984375 0 1.921875 -0.375q0.9375 -0.390625 1.421875 -0.8125l0 -2.140625l-3.375 0zm7.3515625 4.5l0 -11.453125l1.515625 0l0 11.453125l-1.515625 0zm4.1640625 0l0 -11.453125l1.5625 0l6.015625 8.984375l0 -8.984375l1.453125 0l0 11.453125l-1.5625 0l-6.015625 -9.0l0 9.0l-1.453125 0z" fill-rule="nonzero"></path><path fill="#000000" fill-opacity="0.0" d="m512.3261 496.0l0 104.0l-80.180786 0" fill-rule="nonzero"></path><path stroke="#000000" stroke-width="2.0" stroke-linejoin="round" stroke-linecap="butt" d="m512.3261 496.0l0 104.0l-68.18082 0" fill-rule="evenodd"></path><path fill="#000000" stroke="#000000" stroke-width="2.0" stroke-linecap="butt" d="m444.1453 596.69653l-9.076202 3.3034668l9.076202 3.3034668z" fill-rule="evenodd"></path><path fill="#000000" fill-opacity="0.0" d="m200.32611 296.0037l0 304.304l104.3728 0" fill-rule="nonzero"></path><path stroke="#000000" stroke-width="2.0" stroke-linejoin="round" stroke-linecap="butt" d="m200.32611 296.0037l0 304.304l92.3728 0" fill-rule="evenodd"></path><path fill="#000000" stroke="#000000" stroke-width="2.0" stroke-linecap="butt" d="m292.6989 603.61115l9.076202 -3.3034668l-9.076202 -3.3034668z" fill-rule="evenodd"></path><path fill="#000000" fill-opacity="0.0" d="m592.3261 216.0l136.37793 0l0 48.0l-136.37793 0z" fill-rule="nonzero"></path><path fill="#674ea7" d="m620.3916 243.35156l-1.5625 0l0 2.40625l-1.296875 0l0 -2.40625l-4.9375 0l0 -1.15625l4.859375 -7.203125l1.375 0l0 7.140625l1.5625 0l0 1.21875zm-2.859375 -1.21875l0 -2.59375q0 -1.296875 0.109375 -3.171875l-0.078125 0q-0.265625 0.75 -0.65625 1.3125l-3.0 4.453125l3.625 0zm11.170166 -4.125l-0.453125 1.15625q-1.09375 -0.421875 -1.953125 -0.421875q-2.71875 0 -2.71875 3.03125q0 2.96875 2.640625 2.96875q1.15625 0 2.34375 -0.453125l0 1.171875q-0.96875 0.4375 -2.40625 0.4375q-1.875 0 -2.921875 -1.0625q-1.03125 -1.0625 -1.03125 -3.0625q0 -2.046875 1.0625 -3.125q1.0625 -1.078125 2.984375 -1.078125q1.296875 0 2.453125 0.4375zm8.779541 -0.109375l-0.359375 1.21875q-0.890625 -0.328125 -1.640625 -0.328125q-1.1875 0 -1.84375 0.671875q-0.640625 0.671875 -0.640625 1.953125l0 4.34375l-1.328125 0l0 -8.046875l1.078125 0l0.15625 1.484375l0.0625 0q0.5625 -0.875 1.1875 -1.25q0.640625 -0.375 1.578125 -0.375q0.859375 0 1.75 0.328125zm5.513977 8.0q-1.578125 0 -2.609375 -1.125q-1.015625 -1.140625 -1.015625 -3.046875q0 -1.9375 0.984375 -3.046875q1.0 -1.109375 2.6875 -1.109375q1.59375 0 2.609375 1.140625q1.015625 1.125 1.015625 3.015625q0 1.9375 -1.0 3.0625q-1.0 1.109375 -2.671875 1.109375zm0.03125 -1.09375q2.265625 0 2.265625 -3.078125q0 -3.046875 -2.28125 -3.046875q-2.265625 0 -2.265625 3.046875q0 3.078125 2.28125 3.078125zm5.779541 0.59375l0 -1.21875q1.421875 0.640625 2.71875 0.640625q2.015625 0 2.015625 -1.1875q0 -0.421875 -0.359375 -0.734375q-0.359375 -0.3125 -1.65625 -0.78125q-1.71875 -0.625 -2.15625 -1.15625q-0.4375 -0.53125 -0.4375 -1.265625q0 -0.984375 0.8125 -1.546875q0.8125 -0.578125 2.265625 -0.578125q1.4375 0 2.703125 0.546875l-0.453125 1.078125q-1.328125 -0.515625 -2.328125 -0.515625q-1.734375 0 -1.734375 0.96875q0 0.453125 0.375 0.71875q0.375 0.265625 1.703125 0.734375q1.546875 0.5625 2.046875 1.109375q0.515625 0.546875 0.515625 1.34375q0 1.09375 -0.859375 1.71875q-0.859375 0.625 -2.421875 0.625q-1.8125 0 -2.75 -0.5zm8.795166 0l0 -1.21875q1.421875 0.640625 2.71875 0.640625q2.015625 0 2.015625 -1.1875q0 -0.421875 -0.359375 -0.734375q-0.359375 -0.3125 -1.65625 -0.78125q-1.71875 -0.625 -2.15625 -1.15625q-0.4375 -0.53125 -0.4375 -1.265625q0 -0.984375 0.8125 -1.546875q0.8125 -0.578125 2.265625 -0.578125q1.4375 0 2.703125 0.546875l-0.453125 1.078125q-1.328125 -0.515625 -2.328125 -0.515625q-1.734375 0 -1.734375 0.96875q0 0.453125 0.375 0.71875q0.375 0.265625 1.703125 0.734375q1.546875 0.5625 2.046875 1.109375q0.515625 0.546875 0.515625 1.34375q0 1.09375 -0.859375 1.71875q-0.859375 0.625 -2.421875 0.625q-1.8125 0 -2.75 -0.5zm9.795166 -0.65625l-0.078125 0l-0.28125 1.015625l-0.96875 0l0 -11.390625l1.328125 0l0 2.75q0 0.59375 -0.046875 1.65625l0.046875 0q0.796875 -1.203125 2.359375 -1.203125q1.484375 0 2.3125 1.09375q0.84375 1.09375 0.84375 3.0625q0 1.96875 -0.84375 3.078125q-0.84375 1.09375 -2.3125 1.09375q-1.515625 0 -2.359375 -1.15625zm0 -3.015625q0 1.65625 0.515625 2.375q0.515625 0.703125 1.625 0.703125q1.984375 0 1.984375 -3.09375q0 -3.03125 -2.0 -3.03125q-1.140625 0 -1.640625 0.6875q-0.484375 0.6875 -0.484375 2.359375zm13.060852 4.03125l-0.1875 -1.078125l-0.078125 0q-0.765625 1.21875 -2.453125 1.21875q-2.859375 0 -2.859375 -2.9375l0 -5.25l1.328125 0l0 5.1875q0 1.90625 1.734375 1.90625q1.171875 0 1.71875 -0.671875q0.546875 -0.6875 0.546875 -2.25l0 -4.171875l1.328125 0l0 8.046875l-1.078125 0zm6.685791 -11.359375q0.765625 0 0.765625 0.84375q0 0.421875 -0.234375 0.640625q-0.21875 0.203125 -0.53125 0.203125q-0.78125 0 -0.78125 -0.84375q0 -0.84375 0.78125 -0.84375zm-0.671875 4.375l-1.96875 -0.15625l0 -0.90625l3.296875 0l0 7.0l2.578125 0.140625l0 0.90625l-6.4375 0l0 -0.90625l2.53125 -0.140625l0 -5.9375zm8.717041 -3.359375l-1.953125 -0.15625l0 -0.890625l3.296875 0l0 10.34375l2.578125 0.140625l0 0.90625l-6.4375 0l0 -0.90625l2.515625 -0.140625l0 -9.296875zm11.467041 9.265625l-0.046875 0q-0.828125 1.21875 -2.359375 1.21875q-1.46875 0 -2.3125 -1.09375q-0.84375 -1.09375 -0.84375 -3.046875q0 -1.984375 0.84375 -3.078125q0.84375 -1.109375 2.3125 -1.109375q1.5 0 2.359375 1.171875l0.078125 0q-0.078125 -0.953125 -0.078125 -1.1875l0 -3.1875l1.328125 0l0 11.390625l-1.078125 0l-0.203125 -1.078125zm-0.046875 -2.625l0 -0.296875q0 -1.671875 -0.515625 -2.375q-0.5 -0.703125 -1.625 -0.703125q-1.984375 0 -1.984375 3.09375q0 3.03125 2.0 3.03125q1.125 0 1.609375 -0.640625q0.484375 -0.65625 0.515625 -2.109375z" fill-rule="nonzero"></path><path fill="#000000" fill-opacity="0.0" d="m16.0 216.0l104.314964 0l0 48.0l-104.314964 0z" fill-rule="nonzero"></path><path fill="#674ea7" d="m41.226757 237.71094l0 0.828125l-1.4375 0.203125q0.46875 0.625 0.46875 1.5625q0 1.171875 -0.78125 1.875q-0.765625 0.703125 -2.15625 0.703125q-0.40625 0 -0.640625 -0.046875q-0.734375 0.40625 -0.734375 0.96875q0 0.625 1.1875 0.625l1.359375 0q1.28125 0 1.953125 0.5625q0.671875 0.5625 0.671875 1.609375q0 2.765625 -4.140625 2.765625q-1.59375 0 -2.421875 -0.59375q-0.828125 -0.59375 -0.828125 -1.65625q0 -1.546875 1.75 -1.96875q-0.703125 -0.34375 -0.703125 -1.140625q0 -0.8125 0.984375 -1.40625q-0.65625 -0.265625 -1.03125 -0.890625q-0.375 -0.625 -0.375 -1.359375q0 -1.34375 0.78125 -2.0625q0.78125 -0.71875 2.21875 -0.71875q0.640625 0 1.109375 0.140625l2.765625 0zm-3.90625 4.25q1.640625 0 1.640625 -1.6875q0 -1.75 -1.640625 -1.75q-1.65625 0 -1.65625 1.78125q0 1.65625 1.65625 1.65625zm0.71875 3.671875l-1.375 0q-1.6875 0 -1.6875 1.4375q0 1.28125 1.984375 1.28125q2.90625 0 2.90625 -1.640625q0 -0.640625 -0.375 -0.859375q-0.359375 -0.21875 -1.453125 -0.21875zm8.201431 0.265625q-1.578125 0 -2.609375 -1.125q-1.015625 -1.140625 -1.015625 -3.046875q0 -1.9375 0.984375 -3.046875q1.0 -1.109375 2.6875 -1.109375q1.59375 0 2.609375 1.140625q1.015625 1.125 1.015625 3.015625q0 1.9375 -1.0 3.0625q-1.0 1.109375 -2.671875 1.109375zm0.03125 -1.09375q2.265625 0 2.265625 -3.078125q0 -3.046875 -2.28125 -3.046875q-2.265625 0 -2.265625 3.046875q0 3.078125 2.28125 3.078125zm15.574738 -0.0625l-0.078125 0l-0.28125 1.015625l-0.96875 0l0 -11.390625l1.328125 0l0 2.75q0 0.59375 -0.046875 1.65625l0.046875 0q0.796875 -1.203125 2.3593788 -1.203125q1.484375 0 2.3125 1.09375q0.84375 1.09375 0.84375 3.0625q0 1.96875 -0.84375 3.078125q-0.84375 1.09375 -2.3125 1.09375q-1.5156288 0 -2.3593788 -1.15625zm0 -3.015625q0 1.65625 0.515625 2.375q0.515625 0.703125 1.625 0.703125q1.9843788 0 1.9843788 -3.09375q0 -3.03125 -2.0000038 -3.03125q-1.140625 0 -1.640625 0.6875q-0.484375 0.6875 -0.484375 2.359375zm13.06081 4.03125l-0.1875 -1.078125l-0.078125 0q-0.765625 1.21875 -2.453125 1.21875q-2.859375 0 -2.859375 -2.9375l0 -5.25l1.328125 0l0 5.1875q0 1.90625 1.734375 1.90625q1.171875 0 1.71875 -0.671875q0.546875 -0.6875 0.546875 -2.25l0 -4.171875l1.328125 0l0 8.046875l-1.078125 0zm6.6858063 -11.359375q0.765625 0 0.765625 0.84375q0 0.421875 -0.234375 0.640625q-0.21875 0.203125 -0.53125 0.203125q-0.78125 0 -0.78125 -0.84375q0 -0.84375 0.78125 -0.84375zm-0.671875 4.375l-1.96875 -0.15625l0 -0.90625l3.296875 0l0 7.0l2.578125 0.140625l0 0.90625l-6.4375 0l0 -0.90625l2.53125 -0.140625l0 -5.9375zm8.717056 -3.359375l-1.953125 -0.15625l0 -0.890625l3.296875 0l0 10.34375l2.578125 0.140625l0 0.90625l-6.4375 0l0 -0.90625l2.515625 -0.140625l0 -9.296875zm11.467056 9.265625l-0.046875 0q-0.828125 1.21875 -2.359375 1.21875q-1.46875 0 -2.3125 -1.09375q-0.84375 -1.09375 -0.84375 -3.046875q0 -1.984375 0.84375 -3.078125q0.84375 -1.109375 2.3125 -1.109375q1.5 0 2.359375 1.171875l0.078125 0q-0.078125 -0.953125 -0.078125 -1.1875l0 -3.1875l1.328125 0l0 11.390625l-1.078125 0l-0.203125 -1.078125zm-0.046875 -2.625l0 -0.296875q0 -1.671875 -0.515625 -2.375q-0.5 -0.703125 -1.625 -0.703125q-1.984375 0 -1.984375 3.09375q0 3.03125 2.0 3.03125q1.125 0 1.609375 -0.640625q0.484375 -0.65625 0.515625 -2.109375z" fill-rule="nonzero"></path><path fill="#000000" fill-opacity="0.0" d="m592.01117 416.0l104.31494 0l0 48.0l-104.31494 0z" fill-rule="nonzero"></path><path fill="#674ea7" d="m621.6355 443.35156l-1.5625 0l0 2.40625l-1.296875 0l0 -2.40625l-4.9375 0l0 -1.15625l4.859375 -7.203125l1.375 0l0 7.140625l1.5625 0l0 1.21875zm-2.859375 -1.21875l0 -2.59375q0 -1.296875 0.109375 -3.171875l-0.078125 0q-0.265625 0.75 -0.65625 1.3125l-3.0 4.453125l3.625 0zm9.967041 2.546875l-0.046875 0q-0.828125 1.21875 -2.359375 1.21875q-1.46875 0 -2.3125 -1.09375q-0.84375 -1.09375 -0.84375 -3.046875q0 -1.984375 0.84375 -3.078125q0.84375 -1.109375 2.3125 -1.109375q1.5 0 2.359375 1.171875l0.078125 0q-0.078125 -0.953125 -0.078125 -1.1875l0 -3.1875l1.328125 0l0 11.390625l-1.078125 0l-0.203125 -1.078125zm-0.046875 -2.625l0 -0.296875q0 -1.671875 -0.515625 -2.375q-0.5 -0.703125 -1.625 -0.703125q-1.984375 0 -1.984375 3.09375q0 3.03125 2.0 3.03125q1.125 0 1.609375 -0.640625q0.484375 -0.65625 0.515625 -2.109375zm10.310852 -0.0625l-5.671875 0q0.0625 2.75 2.515625 2.75q1.4375 0 2.71875 -0.5625l0 1.171875q-1.21875 0.546875 -2.671875 0.546875q-1.796875 0 -2.875 -1.09375q-1.078125 -1.09375 -1.078125 -3.015625q0 -1.9375 0.984375 -3.078125q1.0 -1.140625 2.671875 -1.140625q1.546875 0 2.46875 0.984375q0.9375 0.984375 0.9375 2.609375l0 0.828125zm-5.640625 -1.078125l4.1875 0q0 -2.234375 -1.984375 -2.234375q-2.015625 0 -2.203125 2.234375zm8.888916 3.828125l-0.078125 0q0.078125 0.9375 0.078125 1.1875l0 3.4375l-1.328125 0l0 -11.65625l1.078125 0l0.203125 1.09375l0.046875 0q0.8125 -1.234375 2.359375 -1.234375q1.484375 0 2.3125 1.09375q0.84375 1.09375 0.84375 3.0625q0 1.96875 -0.84375 3.078125q-0.84375 1.09375 -2.3125 1.09375q-1.515625 0 -2.359375 -1.15625zm0 -3.328125l0 0.3125q0 1.65625 0.515625 2.375q0.515625 0.703125 1.625 0.703125q1.984375 0 1.984375 -3.09375q0 -3.03125 -2.0 -3.03125q-1.109375 0 -1.609375 0.640625q-0.484375 0.640625 -0.515625 2.09375zm10.201416 -6.0l-1.953125 -0.15625l0 -0.890625l3.296875 0l0 10.34375l2.578125 0.140625l0 0.90625l-6.4375 0l0 -0.90625l2.515625 -0.140625l0 -9.296875zm9.373291 10.484375q-1.578125 0 -2.609375 -1.125q-1.015625 -1.140625 -1.015625 -3.046875q0 -1.9375 0.984375 -3.046875q1.0 -1.109375 2.6875 -1.109375q1.59375 0 2.609375 1.140625q1.015625 1.125 1.015625 3.015625q0 1.9375 -1.0 3.0625q-1.0 1.109375 -2.671875 1.109375zm0.03125 -1.09375q2.265625 0 2.265625 -3.078125q0 -3.046875 -2.28125 -3.046875q-2.265625 0 -2.265625 3.046875q0 3.078125 2.28125 3.078125zm4.888977 -7.09375l1.390625 0l1.90625 4.796875q0.609375 1.5 0.65625 2.125l0.046875 0q0.171875 -0.828125 0.65625 -2.140625l1.75 -4.78125l1.390625 0l-3.484375 9.09375q-0.484375 1.28125 -1.140625 1.921875q-0.65625 0.640625 -1.796875 0.640625q-0.640625 0 -1.234375 -0.125l0 -1.0625q0.453125 0.078125 1.0 0.078125q0.703125 0 1.09375 -0.296875q0.390625 -0.296875 0.6875 -1.03125l0.4375 -1.09375l-3.359375 -8.125z" fill-rule="nonzero"></path></g></svg>

