<?xml version="1.0" standalone="yes"?>

<svg version="1.1" viewBox="0.0 0.0 661.0 188.0" fill="none" stroke="none" stroke-linecap="square" stroke-miterlimit="10" xmlns="http://www.w3.org/2000/svg" xmlns:xlink="http://www.w3.org/1999/xlink"><clipPath id="p.0"><path d="m0 0l661.0 0l0 188.0l-661.0 0l0 -188.0z" clip-rule="nonzero"></path></clipPath><g clip-path="url(#p.0)"><path fill="#000000" fill-opacity="0.0" d="m0 0l661.0 0l0 188.0l-661.0 0z" fill-rule="nonzero"></path><path fill="#000000" fill-opacity="0.0" d="m8.0 48.0l632.0945 0l0 48.0l-632.0945 0z" fill-rule="nonzero"></path><path fill="#a64d79" d="m24.923279 78.02344l-0.109375 0q0.109375 1.203125 0.109375 1.515625l0 4.34375l-1.6875 0l0 -14.75l1.359375 0l0.25 1.375l0.078125 0q1.015625 -1.5625 2.984375 -1.5625q1.859375 0 2.921875 1.390625q1.0625 1.390625 1.0625 3.875q0 2.5 -1.0625 3.90625q-1.0625 1.390625 -2.921875 1.390625q-1.921875 0 -2.984375 -1.484375zm0 -4.203125l0 0.390625q0 2.109375 0.640625 3.0q0.640625 0.890625 2.0625 0.890625q2.515625 0 2.515625 -3.90625q0 -3.84375 -2.546875 -3.84375q-1.40625 0 -2.03125 0.8125q-0.609375 0.8125 -0.640625 2.65625zm16.586197 5.5l-0.25 -1.359375l-0.09375 0q-0.96875 1.546875 -3.09375 1.546875q-3.625 0 -3.625 -3.71875l0 -6.65625l1.6875 0l0 6.5625q0 2.40625 2.1875 2.40625q1.5 0 2.1875 -0.859375q0.6875 -0.859375 0.6875 -2.828125l0 -5.28125l1.6875 0l0 10.1875l-1.375 0zm12.117447 -1.390625l0 1.28125q-1.21875 0.296875 -2.34375 0.296875q-3.359375 0 -3.359375 -3.1875l0 -5.921875l-2.46875 0l0 -0.859375l2.46875 -0.46875l0.71875 -2.65625l0.96875 0l0 2.71875l4.0625 0l0 1.265625l-4.0625 0l0 5.921875q0 1.796875 1.78125 1.796875q0.859375 0 2.234375 -0.1875zm16.078644 0.09375l-0.109375 0q0.109375 1.203125 0.109375 1.515625l0 4.34375l-1.6875 0l0 -14.75l1.359375 0l0.25 1.375l0.078125 0q1.015625 -1.5625 2.984375 -1.5625q1.859375 0 2.921875 1.390625q1.0625 1.390625 1.0625 3.875q0 2.5 -1.0625 3.90625q-1.0625 1.390625 -2.921875 1.390625q-1.921875 0 -2.984375 -1.484375zm0 -4.203125l0 0.390625q0 2.109375 0.640625 3.0q0.640625 0.890625 2.0625 0.890625q2.515625 0 2.515625 -3.90625q0 -3.84375 -2.546875 -3.84375q-1.40625 0 -2.03125 0.8125q-0.609375 0.8125 -0.640625 2.65625zm17.867447 -4.453125l-0.453125 1.53125q-1.140625 -0.40625 -2.078125 -0.40625q-1.515625 0 -2.34375 0.859375q-0.8125 0.859375 -0.8125 2.46875l0 5.5l-1.6875 0l0 -10.1875l1.375 0l0.203125 1.859375l0.0625 0q0.71875 -1.09375 1.515625 -1.5625q0.8125 -0.484375 1.984375 -0.484375q1.09375 0 2.234375 0.421875zm7.023697 10.140625q-2.0 0 -3.296875 -1.4375q-1.296875 -1.453125 -1.296875 -3.859375q0 -2.4375 1.25 -3.84375q1.265625 -1.421875 3.40625 -1.421875q2.015625 0 3.296875 1.4375q1.296875 1.4375 1.296875 3.828125q0 2.453125 -1.265625 3.875q-1.265625 1.421875 -3.390625 1.421875zm0.046875 -1.40625q2.875 0 2.875 -3.890625q0 -3.859375 -2.90625 -3.859375q-2.859375 0 -2.859375 3.859375q0 3.890625 2.890625 3.890625zm15.336197 -8.609375l-0.578125 1.46875q-1.390625 -0.53125 -2.484375 -0.53125q-3.4375 0 -3.4375 3.828125q0 3.765625 3.34375 3.765625q1.453125 0 2.984375 -0.5625l0 1.484375q-1.25 0.5625 -3.0625 0.5625q-2.375 0 -3.703125 -1.34375q-1.3125 -1.359375 -1.3125 -3.875q0 -2.609375 1.34375 -3.96875q1.34375 -1.375 3.78125 -1.375q1.65625 0 3.125 0.546875zm7.054947 7.03125q1.40625 0 1.40625 1.546875q0 1.53125 -1.40625 1.53125q-1.40625 0 -1.40625 -1.53125q0 -1.546875 1.40625 -1.546875zm10.429947 -10.3125l-2.484375 -0.1875l0 -1.140625l4.1875 0l0 13.109375l3.265625 0.1875l0 1.140625l-8.15625 0l0 -1.140625l3.1875 -0.1875l0 -11.78125zm11.914322 13.296875q-2.0 0 -3.296875 -1.4375q-1.296875 -1.453125 -1.296875 -3.859375q0 -2.4375 1.25 -3.84375q1.265625 -1.421875 3.40625 -1.421875q2.015625 0 3.296875 1.4375q1.296875 1.4375 1.296875 3.828125q0 2.453125 -1.265625 3.875q-1.265625 1.421875 -3.390625 1.421875zm0.046875 -1.40625q2.875 0 2.875 -3.890625q0 -3.859375 -2.90625 -3.859375q-2.859375 0 -2.859375 3.859375q0 3.890625 2.890625 3.890625zm13.789322 1.21875l-0.34375 -1.40625l-0.0625 0q-0.71875 0.890625 -1.46875 1.25q-0.75 0.34375 -1.9375 0.34375q-1.515625 0 -2.375 -0.796875q-0.859375 -0.796875 -0.859375 -2.234375q0 -3.078125 4.734375 -3.234375l1.890625 -0.0625l0 -0.640625q0 -2.1875 -2.265625 -2.1875q-1.375 0 -3.046875 0.765625l-0.59375 -1.28125q1.828125 -0.890625 3.5625 -0.890625q2.109375 0 3.046875 0.8125q0.9375 0.796875 0.9375 2.578125l0 6.984375l-1.21875 0zm-0.453125 -4.984375l-1.5 0.0625q-1.8125 0.078125 -2.578125 0.578125q-0.765625 0.5 -0.765625 1.515625q0 1.65625 1.859375 1.65625q1.359375 0 2.171875 -0.75q0.8125 -0.765625 0.8125 -2.140625l0 -0.921875zm11.679947 3.625l-0.078125 0q-1.046875 1.546875 -2.984375 1.546875q-1.875 0 -2.9375 -1.390625q-1.0625 -1.390625 -1.0625 -3.875q0 -2.5 1.0625 -3.890625q1.078125 -1.40625 2.9375 -1.40625q1.90625 0 2.984375 1.484375l0.109375 0q-0.109375 -1.1875 -0.109375 -1.5l0 -4.046875l1.6875 0l0 14.4375l-1.359375 0l-0.25 -1.359375zm-0.078125 -3.328125l0 -0.390625q0 -2.109375 -0.65625 -3.0q-0.640625 -0.890625 -2.046875 -0.890625q-2.515625 0 -2.515625 3.90625q0 3.84375 2.53125 3.84375q1.421875 0 2.03125 -0.8125q0.609375 -0.828125 0.65625 -2.65625zm11.242447 4.6875l-0.34375 -1.40625l-0.0625 0q-0.71875 0.890625 -1.46875 1.25q-0.75 0.34375 -1.9375 0.34375q-1.515625 0 -2.375 -0.796875q-0.859375 -0.796875 -0.859375 -2.234375q0 -3.078125 4.734375 -3.234375l1.890625 -0.0625l0 -0.640625q0 -2.1875 -2.265625 -2.1875q-1.375 0 -3.046875 0.765625l-0.59375 -1.28125q1.828125 -0.890625 3.5625 -0.890625q2.109375 0 3.046875 0.8125q0.9375 0.796875 0.9375 2.578125l0 6.984375l-1.21875 0zm-0.453125 -4.984375l-1.5 0.0625q-1.8125 0.078125 -2.578125 0.578125q-0.765625 0.5 -0.765625 1.515625q0 1.65625 1.859375 1.65625q1.359375 0 2.171875 -0.75q0.8125 -0.765625 0.8125 -2.140625l0 -0.921875zm7.976822 4.984375l-3.859375 -10.1875l1.734375 0l2.234375 6.046875q0.78125 2.140625 0.921875 3.015625l0.0625 0q0.0625 -0.40625 0.9375 -3.015625l2.21875 -6.046875l1.75 0l-3.859375 10.1875l-2.140625 0zm17.023697 -10.1875l0 1.046875l-1.828125 0.25q0.609375 0.796875 0.609375 1.984375q0 1.484375 -1.0 2.375q-0.984375 0.890625 -2.734375 0.890625q-0.515625 0 -0.8125 -0.0625q-0.921875 0.515625 -0.921875 1.234375q0 0.78125 1.5 0.78125l1.734375 0q1.609375 0 2.453125 0.71875q0.859375 0.703125 0.859375 2.03125q0 3.5 -5.234375 3.5q-2.03125 0 -3.078125 -0.75q-1.046875 -0.734375 -1.046875 -2.09375q0 -1.953125 2.21875 -2.5q-0.890625 -0.4375 -0.890625 -1.421875q0 -1.046875 1.234375 -1.78125q-0.828125 -0.34375 -1.296875 -1.140625q-0.46875 -0.796875 -0.46875 -1.734375q0 -1.6875 0.984375 -2.59375q0.984375 -0.921875 2.8125 -0.921875q0.796875 0 1.390625 0.1875l3.515625 0zm-4.9375 5.375q2.0625 0 2.0625 -2.125q0 -2.21875 -2.078125 -2.21875q-2.09375 0 -2.09375 2.25q0 2.09375 2.109375 2.09375zm0.90625 4.640625l-1.75 0q-2.125 0 -2.125 1.84375q0 1.609375 2.515625 1.609375q3.65625 0 3.65625 -2.0625q0 -0.8125 -0.46875 -1.109375q-0.453125 -0.28125 -1.828125 -0.28125zm10.476822 -2.625q1.40625 0 1.40625 1.546875q0 1.53125 -1.40625 1.53125q-1.40625 0 -1.40625 -1.53125q0 -1.546875 1.40625 -1.546875zm12.523697 2.796875l-1.625 0l0 -8.46875q0 -1.140625 0.0625 -3.34375q-0.359375 0.390625 -1.125 1.046875l-1.359375 1.109375l-0.890625 -1.140625l3.546875 -2.765625l1.390625 0l0 13.5625zm13.226822 0l0 -6.5625q0 -1.34375 -0.25 -1.875q-0.234375 -0.53125 -0.8125 -0.53125q-0.8125 0 -1.1875 0.765625q-0.359375 0.765625 -0.359375 2.578125l0 5.625l-1.484375 0l0 -6.5625q0 -2.40625 -1.171875 -2.40625q-0.765625 0 -1.109375 0.734375q-0.328125 0.734375 -0.328125 2.953125l0 5.28125l-1.5 0l0 -10.1875l1.171875 0l0.25 1.375l0.09375 0q0.625 -1.5625 1.859375 -1.5625q1.515625 0 1.984375 1.6875l0.046875 0q0.71875 -1.6875 2.03125 -1.6875q1.1875 0 1.71875 0.859375q0.546875 0.859375 0.546875 2.859375l0 6.65625l-1.5 0zm20.359894 0l-1.625 0l0 -8.46875q0 -1.140625 0.0625 -3.34375q-0.359375 0.390625 -1.125 1.046875l-1.359375 1.109375l-0.890625 -1.140625l3.546875 -2.765625l1.390625 0l0 13.5625zm14.086182 0l-8.453125 0l0 -1.453125l3.25 -3.53125q1.796875 -1.96875 2.375 -2.9375q0.578125 -0.96875 0.578125 -2.140625q0 -1.046875 -0.59375 -1.65625q-0.578125 -0.609375 -1.578125 -0.609375q-1.484375 0 -2.953125 1.265625l-0.953125 -1.09375q1.78125 -1.609375 3.921875 -1.609375q1.796875 0 2.828125 0.984375q1.046875 0.984375 1.046875 2.65625q0 1.09375 -0.546875 2.265625q-0.546875 1.15625 -2.703125 3.46875l-2.609375 2.78125l0 0.0625l6.390625 0l0 1.546875zm8.367462 -7.1875q2.859375 1.484375 2.859375 3.65625q0 1.671875 -1.171875 2.703125q-1.171875 1.015625 -3.078125 1.015625q-2.015625 0 -3.140625 -0.953125q-1.109375 -0.96875 -1.109375 -2.6875q0 -2.390625 2.609375 -3.65625q-2.171875 -1.359375 -2.171875 -3.421875q0 -1.5 1.078125 -2.375q1.078125 -0.875 2.734375 -0.875q1.703125 0 2.75 0.890625q1.0625 0.875 1.0625 2.375q0 2.140625 -2.421875 3.328125zm-1.375 -0.6875q2.15625 -0.953125 2.15625 -2.578125q0 -0.9375 -0.59375 -1.421875q-0.578125 -0.484375 -1.609375 -0.484375q-0.984375 0 -1.5625 0.484375q-0.578125 0.484375 -0.578125 1.421875q0 0.84375 0.453125 1.421875q0.46875 0.578125 1.734375 1.15625zm-0.265625 1.421875q-2.359375 1.125 -2.359375 3.015625q0 2.21875 2.5625 2.21875q1.265625 0 1.953125 -0.609375q0.6875 -0.609375 0.6875 -1.6875q0 -0.828125 -0.578125 -1.46875q-0.578125 -0.65625 -1.984375 -1.34375l-0.28125 -0.125zm12.836212 -0.734375q2.859375 1.484375 2.859375 3.65625q0 1.671875 -1.171875 2.703125q-1.171875 1.015625 -3.078125 1.015625q-2.015625 0 -3.140625 -0.953125q-1.109375 -0.96875 -1.109375 -2.6875q0 -2.390625 2.609375 -3.65625q-2.171875 -1.359375 -2.171875 -3.421875q0 -1.5 1.078125 -2.375q1.078125 -0.875 2.734375 -0.875q1.703125 0 2.75 0.890625q1.0625 0.875 1.0625 2.375q0 2.140625 -2.421875 3.328125zm-1.375 -0.6875q2.15625 -0.953125 2.15625 -2.578125q0 -0.9375 -0.59375 -1.421875q-0.578125 -0.484375 -1.609375 -0.484375q-0.984375 0 -1.5625 0.484375q-0.578125 0.484375 -0.578125 1.421875q0 0.84375 0.453125 1.421875q0.46875 0.578125 1.734375 1.15625zm-0.265625 1.421875q-2.359375 1.125 -2.359375 3.015625q0 2.21875 2.5625 2.21875q1.265625 0 1.953125 -0.609375q0.6875 -0.609375 0.6875 -1.6875q0 -0.828125 -0.578125 -1.46875q-0.578125 -0.65625 -1.984375 -1.34375l-0.28125 -0.125zm8.195557 6.46875l0 -1.4375q0.625 0.21875 1.53125 0.21875q2.078125 0 3.125 -1.296875q1.046875 -1.3125 1.140625 -4.15625l-0.109375 0q-0.890625 1.578125 -2.859375 1.578125q-1.796875 0 -2.828125 -1.09375q-1.03125 -1.09375 -1.03125 -3.015625q0 -2.125 1.125 -3.34375q1.125 -1.234375 3.0 -1.234375q2.046875 0 3.234375 1.59375q1.1875 1.59375 1.1875 4.390625q0 7.96875 -5.921875 7.96875q-0.96875 0 -1.59375 -0.171875zm0.609375 -9.203125q0 1.34375 0.625 2.0625q0.640625 0.71875 1.828125 0.71875q1.171875 0 1.96875 -0.75q0.796875 -0.75 0.796875 -1.71875q0 -1.390625 -0.75 -2.421875q-0.734375 -1.03125 -1.96875 -1.03125q-1.1875 0 -1.84375 0.8125q-0.65625 0.796875 -0.65625 2.328125zm18.586182 6.140625l-1.984375 0l0 3.046875l-1.625 0l0 -3.046875l-6.28125 0l0 -1.46875l6.15625 -9.125l1.75 0l0 9.0625l1.984375 0l0 1.53125zm-3.609375 -1.53125l0 -3.3125q0 -1.625 0.109375 -4.0l-0.078125 0q-0.328125 0.9375 -0.828125 1.671875l-3.8125 5.640625l4.609375 0zm13.304932 -9.0l0 1.4375q-0.65625 -0.21875 -1.546875 -0.21875q-2.078125 0 -3.125 1.3125q-1.03125 1.296875 -1.125 4.140625l0.109375 0q0.875 -1.578125 2.84375 -1.578125q1.8125 0 2.828125 1.109375q1.03125 1.09375 1.03125 3.0q0 2.125 -1.125 3.34375q-1.109375 1.21875 -2.984375 1.21875q-2.03125 0 -3.234375 -1.5625q-1.203125 -1.5625 -1.203125 -4.421875q0 -7.96875 5.9375 -7.96875q0.96875 0 1.59375 0.1875zm-0.609375 9.203125q0 -1.34375 -0.640625 -2.0625q-0.640625 -0.71875 -1.8125 -0.71875q-1.171875 0 -1.96875 0.75q-0.796875 0.75 -0.796875 1.71875q0 1.40625 0.75 2.4375q0.75 1.015625 1.953125 1.015625q1.1875 0 1.84375 -0.8125q0.671875 -0.8125 0.671875 -2.328125zm5.3049316 4.390625l0 -1.4375q0.625 0.21875 1.53125 0.21875q2.078125 0 3.125 -1.296875q1.046875 -1.3125 1.140625 -4.15625l-0.109375 0q-0.890625 1.578125 -2.859375 1.578125q-1.796875 0 -2.828125 -1.09375q-1.03125 -1.09375 -1.03125 -3.015625q0 -2.125 1.125 -3.34375q1.125 -1.234375 3.0 -1.234375q2.046875 0 3.234375 1.59375q1.1875 1.59375 1.1875 4.390625q0 7.96875 -5.921875 7.96875q-0.96875 0 -1.59375 -0.171875zm0.609375 -9.203125q0 1.34375 0.625 2.0625q0.640625 0.71875 1.828125 0.71875q1.171875 0 1.96875 -0.75q0.796875 -0.75 0.796875 -1.71875q0 -1.390625 -0.75 -2.421875q-0.734375 -1.03125 -1.96875 -1.03125q-1.1875 0 -1.84375 0.8125q-0.65625 0.796875 -0.65625 2.328125zm18.054932 9.1875l-8.453125 0l0 -1.453125l3.25 -3.53125q1.796875 -1.96875 2.375 -2.9375q0.578125 -0.96875 0.578125 -2.140625q0 -1.046875 -0.59375 -1.65625q-0.578125 -0.609375 -1.578125 -0.609375q-1.484375 0 -2.953125 1.265625l-0.953125 -1.09375q1.78125 -1.609375 3.921875 -1.609375q1.796875 0 2.828125 0.984375q1.046875 0.984375 1.046875 2.65625q0 1.09375 -0.546875 2.265625q-0.546875 1.15625 -2.703125 3.46875l-2.609375 2.78125l0 0.0625l6.390625 0l0 1.546875zm4.3674316 0l5.234375 -12.03125l-7.0 0l0 -1.53125l8.71875 0l0 1.34375l-5.140625 12.21875l-1.8125 0zm24.969238 0.1875q-2.125 0 -3.21875 -1.796875q-1.09375 -1.796875 -1.09375 -5.1875q0 -6.984375 4.3125 -6.984375q2.15625 0 3.25 1.796875q1.109375 1.796875 1.109375 5.1875q0 6.984375 -4.359375 6.984375zm0 -1.4375q1.375 0 2.015625 -1.296875q0.640625 -1.3125 0.640625 -4.25q0 -2.921875 -0.640625 -4.21875q-0.640625 -1.3125 -2.015625 -1.3125q-1.34375 0 -1.96875 1.296875q-0.625 1.296875 -0.625 4.234375q0 2.953125 0.625 4.25q0.625 1.296875 1.96875 1.296875zm11.226807 -1.546875q1.40625 0 1.40625 1.546875q0 1.53125 -1.40625 1.53125q-1.40625 0 -1.40625 -1.53125q0 -1.546875 1.40625 -1.546875zm11.929932 -4.34375l0 0.046875q3.34375 0.4375 3.34375 3.234375q0 1.890625 -1.28125 2.96875q-1.265625 1.078125 -3.6875 1.078125q-2.25 0 -3.59375 -0.734375l0 -1.578125q1.703125 0.890625 3.546875 0.890625q3.28125 0 3.28125 -2.6875q0 -2.390625 -3.53125 -2.390625l-1.234375 0l0 -1.390625l1.234375 0q1.484375 0 2.296875 -0.703125q0.828125 -0.71875 0.828125 -1.875q0 -0.9375 -0.640625 -1.484375q-0.625 -0.5625 -1.6875 -0.5625q-1.640625 0 -3.1875 1.125l-0.859375 -1.15625q1.734375 -1.40625 4.046875 -1.40625q1.921875 0 2.984375 0.921875q1.078125 0.921875 1.078125 2.453125q0 1.28125 -0.765625 2.140625q-0.765625 0.859375 -2.171875 1.109375zm13.711182 -6.4375l0 1.4375q-0.65625 -0.21875 -1.546875 -0.21875q-2.078125 0 -3.125 1.3125q-1.03125 1.296875 -1.125 4.140625l0.109375 0q0.875 -1.578125 2.84375 -1.578125q1.8125 0 2.828125 1.109375q1.03125 1.09375 1.03125 3.0q0 2.125 -1.125 3.34375q-1.109375 1.21875 -2.984375 1.21875q-2.03125 0 -3.234375 -1.5625q-1.203125 -1.5625 -1.203125 -4.421875q0 -7.96875 5.9375 -7.96875q0.96875 0 1.59375 0.1875zm-0.609375 9.203125q0 -1.34375 -0.640625 -2.0625q-0.640625 -0.71875 -1.8125 -0.71875q-1.171875 0 -1.96875 0.75q-0.796875 0.75 -0.796875 1.71875q0 1.40625 0.75 2.4375q0.75 1.015625 1.953125 1.015625q1.1875 0 1.84375 -0.8125q0.671875 -0.8125 0.671875 -2.328125zm22.281738 4.375l0 -6.5625q0 -2.40625 -2.21875 -2.40625q-2.84375 0 -2.84375 3.6875l0 5.28125l-1.6875 0l0 -14.4375l1.6875 0l0 4.28125l-0.078125 1.34375l0.09375 0q0.953125 -1.5625 3.125 -1.5625q3.609375 0 3.609375 3.71875l0 6.65625l-1.6875 0zm8.617432 0.1875q-2.0 0 -3.296875 -1.4375q-1.296875 -1.453125 -1.296875 -3.859375q0 -2.4375 1.25 -3.84375q1.265625 -1.421875 3.40625 -1.421875q2.015625 0 3.296875 1.4375q1.296875 1.4375 1.296875 3.828125q0 2.453125 -1.265625 3.875q-1.265625 1.421875 -3.390625 1.421875zm0.046875 -1.40625q2.875 0 2.875 -3.890625q0 -3.859375 -2.90625 -3.859375q-2.859375 0 -2.859375 3.859375q0 3.890625 2.890625 3.890625zm7.3830566 0.765625l0 -1.546875q1.78125 0.796875 3.421875 0.796875q2.5625 0 2.5625 -1.5q0 -0.53125 -0.46875 -0.921875q-0.453125 -0.390625 -2.09375 -0.984375q-2.15625 -0.796875 -2.71875 -1.46875q-0.5625 -0.671875 -0.5625 -1.59375q0 -1.265625 1.03125 -1.984375q1.03125 -0.71875 2.859375 -0.71875q1.84375 0 3.4375 0.6875l-0.5625 1.390625q-1.6875 -0.671875 -2.96875 -0.671875q-2.1875 0 -2.1875 1.234375q0 0.5625 0.46875 0.90625q0.46875 0.328125 2.15625 0.9375q1.96875 0.71875 2.609375 1.40625q0.640625 0.6875 0.640625 1.6875q0 1.390625 -1.09375 2.1875q-1.078125 0.796875 -3.0625 0.796875q-2.296875 0 -3.46875 -0.640625zm18.773682 -0.9375l0 1.28125q-1.21875 0.296875 -2.34375 0.296875q-3.359375 0 -3.359375 -3.1875l0 -5.921875l-2.46875 0l0 -0.859375l2.46875 -0.46875l0.71875 -2.65625l0.96875 0l0 2.71875l4.0625 0l0 1.265625l-4.0625 0l0 5.921875q0 1.796875 1.78125 1.796875q0.859375 0 2.234375 -0.1875zm3.1330566 -6.515625l0 -1.375l8.5625 0l0 1.375l-8.5625 0zm0 3.8125l0 -1.40625l8.5625 0l0 1.40625l-8.5625 0zm19.476807 -4.828125l-3.609375 0l0 8.921875l-1.6875 0l0 -8.921875l-2.9375 0l0 -1.015625l2.9375 -0.3125l0 -0.890625q0 -1.78125 0.828125 -2.578125q0.84375 -0.8125 2.78125 -0.8125q1.1875 0 2.328125 0.3125l-0.375 1.328125q-0.96875 -0.25 -1.921875 -0.25q-1.140625 0 -1.546875 0.46875q-0.40625 0.453125 -0.40625 1.515625l0 0.96875l3.609375 0l0 1.265625zm7.1643066 9.109375q-2.0 0 -3.296875 -1.4375q-1.296875 -1.453125 -1.296875 -3.859375q0 -2.4375 1.25 -3.84375q1.265625 -1.421875 3.40625 -1.421875q2.015625 0 3.296875 1.4375q1.296875 1.4375 1.296875 3.828125q0 2.453125 -1.265625 3.875q-1.265625 1.421875 -3.390625 1.421875zm0.046875 -1.40625q2.875 0 2.875 -3.890625q0 -3.859375 -2.90625 -3.859375q-2.859375 0 -2.859375 3.859375q0 3.890625 2.890625 3.890625zm11.148682 1.40625q-2.0 0 -3.296875 -1.4375q-1.296875 -1.453125 -1.296875 -3.859375q0 -2.4375 1.25 -3.84375q1.265625 -1.421875 3.40625 -1.421875q2.015625 0 3.296875 1.4375q1.296875 1.4375 1.296875 3.828125q0 2.453125 -1.265625 3.875q-1.265625 1.421875 -3.390625 1.421875zm0.046875 -1.40625q2.875 0 2.875 -3.890625q0 -3.859375 -2.90625 -3.859375q-2.859375 0 -2.859375 3.859375q0 3.890625 2.890625 3.890625zm26.531738 -8.609375l-0.578125 1.46875q-1.390625 -0.53125 -2.484375 -0.53125q-3.4375 0 -3.4375 3.828125q0 3.765625 3.34375 3.765625q1.453125 0 2.984375 -0.5625l0 1.484375q-1.25 0.5625 -3.0625 0.5625q-2.375 0 -3.703125 -1.34375q-1.3125 -1.359375 -1.3125 -3.875q0 -2.609375 1.34375 -3.96875q1.34375 -1.375 3.78125 -1.375q1.65625 0 3.125 0.546875zm6.2893066 -3.28125l-2.484375 -0.1875l0 -1.140625l4.1875 0l0 13.109375l3.265625 0.1875l0 1.140625l-8.15625 0l0 -1.140625l3.1875 -0.1875l0 -11.78125zm14.554932 13.109375l-0.34375 -1.40625l-0.0625 0q-0.71875 0.890625 -1.46875 1.25q-0.75 0.34375 -1.9375 0.34375q-1.515625 0 -2.375 -0.796875q-0.859375 -0.796875 -0.859375 -2.234375q0 -3.078125 4.734375 -3.234375l1.890625 -0.0625l0 -0.640625q0 -2.1875 -2.265625 -2.1875q-1.375 0 -3.046875 0.765625l-0.59375 -1.28125q1.828125 -0.890625 3.5625 -0.890625q2.109375 0 3.046875 0.8125q0.9375 0.796875 0.9375 2.578125l0 6.984375l-1.21875 0zm-0.453125 -4.984375l-1.5 0.0625q-1.8125 0.078125 -2.578125 0.578125q-0.765625 0.5 -0.765625 1.515625q0 1.65625 1.859375 1.65625q1.359375 0 2.171875 -0.75q0.8125 -0.765625 0.8125 -2.140625l0 -0.921875zm5.2424316 4.53125l0 -1.546875q1.78125 0.796875 3.421875 0.796875q2.5625 0 2.5625 -1.5q0 -0.53125 -0.46875 -0.921875q-0.453125 -0.390625 -2.09375 -0.984375q-2.15625 -0.796875 -2.71875 -1.46875q-0.5625 -0.671875 -0.5625 -1.59375q0 -1.265625 1.03125 -1.984375q1.03125 -0.71875 2.859375 -0.71875q1.84375 0 3.4375 0.6875l-0.5625 1.390625q-1.6875 -0.671875 -2.96875 -0.671875q-2.1875 0 -2.1875 1.234375q0 0.5625 0.46875 0.90625q0.46875 0.328125 2.15625 0.9375q1.96875 0.71875 2.609375 1.40625q0.640625 0.6875 0.640625 1.6875q0 1.390625 -1.09375 2.1875q-1.078125 0.796875 -3.0625 0.796875q-2.296875 0 -3.46875 -0.640625zm11.195557 0l0 -1.546875q1.78125 0.796875 3.421875 0.796875q2.5625 0 2.5625 -1.5q0 -0.53125 -0.46875 -0.921875q-0.453125 -0.390625 -2.09375 -0.984375q-2.15625 -0.796875 -2.71875 -1.46875q-0.5625 -0.671875 -0.5625 -1.59375q0 -1.265625 1.03125 -1.984375q1.03125 -0.71875 2.859375 -0.71875q1.84375 0 3.4375 0.6875l-0.5625 1.390625q-1.6875 -0.671875 -2.96875 -0.671875q-2.1875 0 -2.1875 1.234375q0 0.5625 0.46875 0.90625q0.46875 0.328125 2.15625 0.9375q1.96875 0.71875 2.609375 1.40625q0.640625 0.6875 0.640625 1.6875q0 1.390625 -1.09375 2.1875q-1.078125 0.796875 -3.0625 0.796875q-2.296875 0 -3.46875 -0.640625zm10.711182 -7.453125l0 -1.375l8.5625 0l0 1.375l-8.5625 0zm0 3.8125l0 -1.40625l8.5625 0l0 1.40625l-8.5625 0zm11.679932 3.640625l0 -1.546875q1.78125 0.796875 3.421875 0.796875q2.5625 0 2.5625 -1.5q0 -0.53125 -0.46875 -0.921875q-0.453125 -0.390625 -2.09375 -0.984375q-2.15625 -0.796875 -2.71875 -1.46875q-0.5625 -0.671875 -0.5625 -1.59375q0 -1.265625 1.03125 -1.984375q1.03125 -0.71875 2.859375 -0.71875q1.84375 0 3.4375 0.6875l-0.5625 1.390625q-1.6875 -0.671875 -2.96875 -0.671875q-2.1875 0 -2.1875 1.234375q0 0.5625 0.46875 0.90625q0.46875 0.328125 2.15625 0.9375q1.96875 0.71875 2.609375 1.40625q0.640625 0.6875 0.640625 1.6875q0 1.390625 -1.09375 2.1875q-1.078125 0.796875 -3.0625 0.796875q-2.296875 0 -3.46875 -0.640625zm19.133057 -9.5l-0.453125 1.53125q-1.140625 -0.40625 -2.078125 -0.40625q-1.515625 0 -2.34375 0.859375q-0.8125 0.859375 -0.8125 2.46875l0 5.5l-1.6875 0l0 -10.1875l1.375 0l0.203125 1.859375l0.0625 0q0.71875 -1.09375 1.515625 -1.5625q0.8125 -0.484375 1.984375 -0.484375q1.09375 0 2.234375 0.421875zm5.9924316 9.953125l-3.859375 -10.1875l1.734375 0l2.234375 6.046875q0.78125 2.140625 0.921875 3.015625l0.0625 0q0.0625 -0.40625 0.9375 -3.015625l2.21875 -6.046875l1.75 0l-3.859375 10.1875l-2.140625 0z" fill-rule="nonzero"></path><path fill="#000000" fill-opacity="0.0" d="m232.1063 96.0c0 8.8365555 -17.013168 16.0 -38.0 16.0l-4.2519684 0c-20.986816 0 -38.0 7.1634445 -38.0 16.0l0 0c0 -8.8365555 -17.013168 -16.0 -37.999992 -16.0l-4.2519684 0l0 0c-20.986824 0 -38.0 -7.1634445 -38.0 -16.0z" fill-rule="nonzero"></path><path fill="#000000" fill-opacity="0.0" d="m232.1063 96.0c0 8.8365555 -17.013168 16.0 -38.0 16.0l-4.2519684 0c-20.986816 0 -38.0 7.1634445 -38.0 16.0l0 0c0 -8.8365555 -17.013168 -16.0 -37.999992 -16.0l-4.2519684 0l0 0c-20.986824 0 -38.0 -7.1634445 -38.0 -16.0" fill-rule="nonzero"></path><path stroke="#000000" stroke-width="2.0" stroke-linejoin="round" stroke-linecap="butt" d="m232.1063 96.0c0 8.8365555 -17.013168 16.0 -38.0 16.0l-4.2519684 0c-20.986816 0 -38.0 7.1634445 -38.0 16.0l0 0c0 -8.8365555 -17.013168 -16.0 -37.999992 -16.0l-4.2519684 0l0 0c-20.986824 0 -38.0 -7.1634445 -38.0 -16.0" fill-rule="nonzero"></path><path fill="#000000" fill-opacity="0.0" d="m632.59845 96.0c0 8.8365555 -17.013184 16.0 -38.0 16.0l-28.252014 0c-20.986816 0 -38.0 7.1634445 -38.0 16.0l0 0c0 -8.8365555 -17.013153 -16.0 -37.99997 -16.0l-28.251984 0l0 0c-20.986816 0 -38.0 -7.1634445 -38.0 -16.0z" fill-rule="nonzero"></path><path fill="#000000" fill-opacity="0.0" d="m632.59845 96.0c0 8.8365555 -17.013184 16.0 -38.0 16.0l-28.252014 0c-20.986816 0 -38.0 7.1634445 -38.0 16.0l0 0c0 -8.8365555 -17.013153 -16.0 -37.99997 -16.0l-28.251984 0l0 0c-20.986816 0 -38.0 -7.1634445 -38.0 -16.0" fill-rule="nonzero"></path><path stroke="#000000" stroke-width="2.0" stroke-linejoin="round" stroke-linecap="butt" d="m632.59845 96.0c0 8.8365555 -17.013184 16.0 -38.0 16.0l-28.252014 0c-20.986816 0 -38.0 7.1634445 -38.0 16.0l0 0c0 -8.8365555 -17.013153 -16.0 -37.99997 -16.0l-28.251984 0l0 0c-20.986816 0 -38.0 -7.1634445 -38.0 -16.0" fill-rule="nonzero"></path><path fill="#000000" fill-opacity="0.0" d="m96.09449 136.50394l119.496056 0l0 31.496063l-119.496056 0z" fill-rule="nonzero"></path><path fill="#000000" d="m114.15225 153.63478l1.34375 -0.109375q0.09375 0.796875 0.4375 1.3125q0.359375 0.515625 1.078125 0.84375q0.734375 0.3125 1.65625 0.3125q0.8125 0 1.4375 -0.234375q0.625 -0.25 0.921875 -0.671875q0.3125 -0.421875 0.3125 -0.921875q0 -0.5 -0.296875 -0.875q-0.296875 -0.375 -0.96875 -0.640625q-0.4375 -0.15625 -1.921875 -0.515625q-1.46875 -0.359375 -2.0625 -0.671875q-0.765625 -0.40625 -1.15625 -1.0q-0.375 -0.59375 -0.375 -1.34375q0 -0.8125 0.453125 -1.515625q0.46875 -0.703125 1.359375 -1.0625q0.890625 -0.375 1.96875 -0.375q1.203125 0 2.109375 0.390625q0.90625 0.375 1.390625 1.125q0.5 0.75 0.546875 1.6875l-1.375 0.109375q-0.109375 -1.015625 -0.75 -1.53125q-0.625 -0.53125 -1.859375 -0.53125q-1.28125 0 -1.875 0.484375q-0.59375 0.46875 -0.59375 1.125q0 0.578125 0.421875 0.953125q0.40625 0.375 2.140625 0.765625q1.734375 0.390625 2.375 0.6875q0.9375 0.4375 1.375 1.109375q0.453125 0.65625 0.453125 1.515625q0 0.859375 -0.5 1.625q-0.484375 0.75 -1.40625 1.171875q-0.90625 0.421875 -2.0625 0.421875q-1.453125 0 -2.4375 -0.421875q-0.984375 -0.4375 -1.546875 -1.28125q-0.5625 -0.859375 -0.59375 -1.9375zm10.088104 6.4375l0 -10.765625l1.203125 0l0 1.015625q0.421875 -0.59375 0.953125 -0.890625q0.546875 -0.296875 1.3125 -0.296875q0.984375 0 1.75 0.515625q0.765625 0.515625 1.140625 1.453125q0.390625 0.921875 0.390625 2.03125q0 1.203125 -0.421875 2.15625q-0.421875 0.953125 -1.25 1.46875q-0.8125 0.5 -1.71875 0.5q-0.65625 0 -1.1875 -0.265625q-0.515625 -0.28125 -0.84375 -0.71875l0 3.796875l-1.328125 0zm1.203125 -6.828125q0 1.5 0.609375 2.21875q0.609375 0.71875 1.46875 0.71875q0.875 0 1.5 -0.734375q0.625 -0.75 0.625 -2.3125q0 -1.484375 -0.609375 -2.21875q-0.609375 -0.75 -1.453125 -0.75q-0.84375 0 -1.5 0.796875q-0.640625 0.78125 -0.640625 2.28125zm12.026108 2.890625q-0.734375 0.609375 -1.40625 0.875q-0.671875 0.25 -1.453125 0.25q-1.28125 0 -1.96875 -0.625q-0.6875 -0.625 -0.6875 -1.59375q0 -0.578125 0.25 -1.046875q0.265625 -0.46875 0.6875 -0.75q0.421875 -0.296875 0.953125 -0.4375q0.375 -0.109375 1.171875 -0.203125q1.59375 -0.1875 2.34375 -0.453125q0.015625 -0.265625 0.015625 -0.34375q0 -0.8125 -0.375 -1.140625q-0.515625 -0.4375 -1.5 -0.4375q-0.9375 0 -1.390625 0.328125q-0.4375 0.3125 -0.640625 1.140625l-1.296875 -0.171875q0.171875 -0.828125 0.578125 -1.328125q0.40625 -0.515625 1.171875 -0.78125q0.765625 -0.28125 1.765625 -0.28125q1.0 0 1.609375 0.234375q0.625 0.234375 0.921875 0.59375q0.296875 0.34375 0.40625 0.890625q0.0625 0.34375 0.0625 1.21875l0 1.75q0 1.84375 0.078125 2.328125q0.09375 0.484375 0.34375 0.9375l-1.375 0q-0.203125 -0.40625 -0.265625 -0.953125zm-0.109375 -2.953125q-0.71875 0.296875 -2.15625 0.5q-0.8125 0.125 -1.15625 0.265625q-0.328125 0.140625 -0.515625 0.421875q-0.171875 0.28125 -0.171875 0.625q0 0.53125 0.390625 0.890625q0.40625 0.34375 1.171875 0.34375q0.765625 0 1.359375 -0.328125q0.59375 -0.34375 0.875 -0.921875q0.203125 -0.4375 0.203125 -1.3125l0 -0.484375zm8.260483 1.0625l1.296875 0.15625q-0.203125 1.34375 -1.09375 2.109375q-0.875 0.75 -2.140625 0.75q-1.59375 0 -2.5625 -1.03125q-0.96875 -1.046875 -0.96875 -3.0q0 -1.265625 0.40625 -2.203125q0.421875 -0.953125 1.265625 -1.421875q0.859375 -0.46875 1.859375 -0.46875q1.265625 0 2.078125 0.640625q0.8125 0.640625 1.03125 1.8125l-1.28125 0.203125q-0.1875 -0.78125 -0.65625 -1.171875q-0.453125 -0.40625 -1.109375 -0.40625q-1.0 0 -1.625 0.71875q-0.625 0.71875 -0.625 2.265625q0 1.5625 0.59375 2.28125q0.609375 0.703125 1.578125 0.703125q0.78125 0 1.296875 -0.46875q0.515625 -0.484375 0.65625 -1.46875zm7.578125 0.34375l1.359375 0.15625q-0.3125 1.203125 -1.1875 1.859375q-0.875 0.65625 -2.234375 0.65625q-1.703125 0 -2.703125 -1.046875q-1.0 -1.046875 -1.0 -2.953125q0 -1.953125 1.015625 -3.03125q1.015625 -1.09375 2.625 -1.09375q1.5625 0 2.546875 1.0625q0.984375 1.0625 0.984375 2.984375q0 0.125 0 0.359375l-5.8125 0q0.078125 1.28125 0.71875 1.96875q0.65625 0.671875 1.640625 0.671875q0.71875 0 1.234375 -0.375q0.515625 -0.390625 0.8125 -1.21875zm-4.328125 -2.140625l4.34375 0q-0.09375 -0.984375 -0.5 -1.46875q-0.625 -0.765625 -1.625 -0.765625q-0.921875 0 -1.546875 0.609375q-0.609375 0.609375 -0.671875 1.625zm7.494858 4.640625l0 -1.5l1.5 0l0 1.5q0 0.828125 -0.296875 1.328125q-0.28125 0.515625 -0.921875 0.796875l-0.359375 -0.5625q0.40625 -0.1875 0.609375 -0.546875q0.203125 -0.34375 0.21875 -1.015625l-0.75 0zm7.9720764 0l0 -10.734375l4.046875 0q1.078125 0 1.640625 0.09375q0.78125 0.140625 1.3125 0.515625q0.546875 0.359375 0.875 1.03125q0.328125 0.65625 0.328125 1.46875q0 1.359375 -0.875 2.3125q-0.875 0.953125 -3.15625 0.953125l-2.75 0l0 4.359375l-1.421875 0zm1.421875 -5.625l2.78125 0q1.375 0 1.953125 -0.515625q0.578125 -0.515625 0.578125 -1.453125q0 -0.671875 -0.34375 -1.140625q-0.34375 -0.484375 -0.890625 -0.640625q-0.359375 -0.09375 -1.328125 -0.09375l-2.75 0l0 3.84375zm13.259979 4.671875q-0.734375 0.609375 -1.40625 0.875q-0.671875 0.25 -1.453125 0.25q-1.28125 0 -1.96875 -0.625q-0.6875 -0.625 -0.6875 -1.59375q0 -0.578125 0.25 -1.046875q0.265625 -0.46875 0.6875 -0.75q0.421875 -0.296875 0.953125 -0.4375q0.375 -0.109375 1.171875 -0.203125q1.59375 -0.1875 2.34375 -0.453125q0.015625 -0.265625 0.015625 -0.34375q0 -0.8125 -0.375 -1.140625q-0.515625 -0.4375 -1.5 -0.4375q-0.9375 0 -1.390625 0.328125q-0.4375 0.3125 -0.640625 1.140625l-1.296875 -0.171875q0.171875 -0.828125 0.578125 -1.328125q0.40625 -0.515625 1.171875 -0.78125q0.765625 -0.28125 1.765625 -0.28125q1.0 0 1.609375 0.234375q0.625 0.234375 0.921875 0.59375q0.296875 0.34375 0.40625 0.890625q0.0625 0.34375 0.0625 1.21875l0 1.75q0 1.84375 0.078125 2.328125q0.09375 0.484375 0.34375 0.9375l-1.375 0q-0.203125 -0.40625 -0.265625 -0.953125zm-0.109375 -2.953125q-0.71875 0.296875 -2.15625 0.5q-0.8125 0.125 -1.15625 0.265625q-0.328125 0.140625 -0.515625 0.421875q-0.171875 0.28125 -0.171875 0.625q0 0.53125 0.390625 0.890625q0.40625 0.34375 1.171875 0.34375q0.765625 0 1.359375 -0.328125q0.59375 -0.34375 0.875 -0.921875q0.203125 -0.4375 0.203125 -1.3125l0 -0.484375zm3.1667328 3.90625l0 -7.78125l1.1875 0l0 1.1875q0.453125 -0.828125 0.84375 -1.09375q0.390625 -0.265625 0.84375 -0.265625q0.671875 0 1.359375 0.421875l-0.453125 1.21875q-0.484375 -0.28125 -0.96875 -0.28125q-0.4375 0 -0.78125 0.265625q-0.34375 0.25 -0.484375 0.71875q-0.21875 0.703125 -0.21875 1.53125l0 4.078125l-1.328125 0zm7.7868958 -1.171875l0.1875 1.15625q-0.5625 0.125 -1.0 0.125q-0.71875 0 -1.125 -0.234375q-0.390625 -0.234375 -0.546875 -0.59375q-0.15625 -0.375 -0.15625 -1.5625l0 -4.46875l-0.96875 0l0 -1.03125l0.96875 0l0 -1.921875l1.3125 -0.796875l0 2.71875l1.328125 0l0 1.03125l-1.328125 0l0 4.546875q0 0.5625 0.0625 0.734375q0.078125 0.15625 0.234375 0.25q0.15625 0.09375 0.4375 0.09375q0.234375 0 0.59375 -0.046875zm5.6752014 1.171875l0 -10.734375l1.40625 0l0 10.734375l-1.40625 0z" fill-rule="nonzero"></path><path fill="#000000" fill-opacity="0.0" d="m472.59842 136.50394l119.49606 0l0 31.496063l-119.49606 0z" fill-rule="nonzero"></path><path fill="#000000" d="m488.6202 153.63478l1.34375 -0.109375q0.09375 0.796875 0.4375 1.3125q0.359375 0.515625 1.078125 0.84375q0.734375 0.3125 1.65625 0.3125q0.8125 0 1.4375 -0.234375q0.625 -0.25 0.921875 -0.671875q0.3125 -0.421875 0.3125 -0.921875q0 -0.5 -0.296875 -0.875q-0.296875 -0.375 -0.96875 -0.640625q-0.4375 -0.15625 -1.921875 -0.515625q-1.46875 -0.359375 -2.0625 -0.671875q-0.765625 -0.40625 -1.15625 -1.0q-0.375 -0.59375 -0.375 -1.34375q0 -0.8125 0.453125 -1.515625q0.46875 -0.703125 1.359375 -1.0625q0.890625 -0.375 1.96875 -0.375q1.203125 0 2.109375 0.390625q0.90625 0.375 1.390625 1.125q0.5 0.75 0.546875 1.6875l-1.375 0.109375q-0.109375 -1.015625 -0.75 -1.53125q-0.625 -0.53125 -1.859375 -0.53125q-1.28125 0 -1.875 0.484375q-0.59375 0.46875 -0.59375 1.125q0 0.578125 0.421875 0.953125q0.40625 0.375 2.140625 0.765625q1.734375 0.390625 2.375 0.6875q0.9375 0.4375 1.375 1.109375q0.453125 0.65625 0.453125 1.515625q0 0.859375 -0.5 1.625q-0.484375 0.75 -1.40625 1.171875q-0.90625 0.421875 -2.0625 0.421875q-1.453125 0 -2.4375 -0.421875q-0.984375 -0.4375 -1.546875 -1.28125q-0.5625 -0.859375 -0.59375 -1.9375zm10.088104 6.4375l0 -10.765625l1.203125 0l0 1.015625q0.421875 -0.59375 0.953125 -0.890625q0.546875 -0.296875 1.3125 -0.296875q0.984375 0 1.75 0.515625q0.765625 0.515625 1.140625 1.453125q0.390625 0.921875 0.390625 2.03125q0 1.203125 -0.421875 2.15625q-0.421875 0.953125 -1.25 1.46875q-0.8125 0.5 -1.71875 0.5q-0.65625 0 -1.1875 -0.265625q-0.515625 -0.28125 -0.84375 -0.71875l0 3.796875l-1.328125 0zm1.203125 -6.828125q0 1.5 0.609375 2.21875q0.609375 0.71875 1.46875 0.71875q0.875 0 1.5 -0.734375q0.625 -0.75 0.625 -2.3125q0 -1.484375 -0.609375 -2.21875q-0.609375 -0.75 -1.453125 -0.75q-0.84375 0 -1.5 0.796875q-0.640625 0.78125 -0.640625 2.28125zm12.026093 2.890625q-0.734375 0.609375 -1.40625 0.875q-0.671875 0.25 -1.453125 0.25q-1.28125 0 -1.96875 -0.625q-0.6875 -0.625 -0.6875 -1.59375q0 -0.578125 0.25 -1.046875q0.265625 -0.46875 0.6875 -0.75q0.421875 -0.296875 0.953125 -0.4375q0.375 -0.109375 1.171875 -0.203125q1.59375 -0.1875 2.34375 -0.453125q0.015625 -0.265625 0.015625 -0.34375q0 -0.8125 -0.375 -1.140625q-0.515625 -0.4375 -1.5 -0.4375q-0.9375 0 -1.390625 0.328125q-0.4375 0.3125 -0.640625 1.140625l-1.296875 -0.171875q0.171875 -0.828125 0.578125 -1.328125q0.40625 -0.515625 1.171875 -0.78125q0.765625 -0.28125 1.765625 -0.28125q1.0 0 1.609375 0.234375q0.6250305 0.234375 0.9219055 0.59375q0.296875 0.34375 0.40625 0.890625q0.0625 0.34375 0.0625 1.21875l0 1.75q0 1.84375 0.078125 2.328125q0.09375 0.484375 0.34375 0.9375l-1.375 0q-0.203125 -0.40625 -0.26565552 -0.953125zm-0.109375 -2.953125q-0.71875 0.296875 -2.15625 0.5q-0.8125 0.125 -1.15625 0.265625q-0.328125 0.140625 -0.515625 0.421875q-0.171875 0.28125 -0.171875 0.625q0 0.53125 0.390625 0.890625q0.40625 0.34375 1.171875 0.34375q0.765625 0 1.359375 -0.328125q0.59375 -0.34375 0.875 -0.921875q0.203125 -0.4375 0.203125 -1.3125l0 -0.484375zm8.260468 1.0625l1.296875 0.15625q-0.203125 1.34375 -1.09375 2.109375q-0.875 0.75 -2.140625 0.75q-1.59375 0 -2.5625 -1.03125q-0.96875 -1.046875 -0.96875 -3.0q0 -1.265625 0.40625 -2.203125q0.421875 -0.953125 1.265625 -1.421875q0.859375 -0.46875 1.859375 -0.46875q1.265625 0 2.078125 0.640625q0.8125 0.640625 1.03125 1.8125l-1.28125 0.203125q-0.1875 -0.78125 -0.65625 -1.171875q-0.453125 -0.40625 -1.109375 -0.40625q-1.0 0 -1.625 0.71875q-0.625 0.71875 -0.625 2.265625q0 1.5625 0.59375 2.28125q0.609375 0.703125 1.578125 0.703125q0.78125 0 1.296875 -0.46875q0.515625 -0.484375 0.65625 -1.46875zm7.578125 0.34375l1.359375 0.15625q-0.3125 1.203125 -1.1875 1.859375q-0.875 0.65625 -2.234375 0.65625q-1.703125 0 -2.703125 -1.046875q-1.0 -1.046875 -1.0 -2.953125q0 -1.953125 1.015625 -3.03125q1.015625 -1.09375 2.625 -1.09375q1.5625 0 2.546875 1.0625q0.984375 1.0625 0.984375 2.984375q0 0.125 0 0.359375l-5.8125 0q0.078125 1.28125 0.71875 1.96875q0.65625 0.671875 1.640625 0.671875q0.71875 0 1.234375 -0.375q0.515625 -0.390625 0.8125 -1.21875zm-4.328125 -2.140625l4.34375 0q-0.09375 -0.984375 -0.5 -1.46875q-0.625 -0.765625 -1.625 -0.765625q-0.921875 0 -1.546875 0.609375q-0.609375 0.609375 -0.671875 1.625zm7.494873 4.640625l0 -1.5l1.5 0l0 1.5q0 0.828125 -0.296875 1.328125q-0.28125 0.515625 -0.921875 0.796875l-0.359375 -0.5625q0.40625 -0.1875 0.609375 -0.546875q0.203125 -0.34375 0.21875 -1.015625l-0.75 0zm7.972107 0l0 -10.734375l4.046875 0q1.078125 0 1.640625 0.09375q0.78125 0.140625 1.3125 0.515625q0.546875 0.359375 0.875 1.03125q0.328125 0.65625 0.328125 1.46875q0 1.359375 -0.875 2.3125q-0.875 0.953125 -3.15625 0.953125l-2.75 0l0 4.359375l-1.421875 0zm1.421875 -5.625l2.78125 0q1.375 0 1.953125 -0.515625q0.578125 -0.515625 0.578125 -1.453125q0 -0.671875 -0.34375 -1.140625q-0.34375 -0.484375 -0.890625 -0.640625q-0.359375 -0.09375 -1.328125 -0.09375l-2.75 0l0 3.84375zm13.259949 4.671875q-0.734375 0.609375 -1.40625 0.875q-0.671875 0.25 -1.453125 0.25q-1.28125 0 -1.96875 -0.625q-0.6875 -0.625 -0.6875 -1.59375q0 -0.578125 0.25 -1.046875q0.265625 -0.46875 0.6875 -0.75q0.421875 -0.296875 0.953125 -0.4375q0.375 -0.109375 1.171875 -0.203125q1.59375 -0.1875 2.34375 -0.453125q0.015625 -0.265625 0.015625 -0.34375q0 -0.8125 -0.375 -1.140625q-0.515625 -0.4375 -1.5 -0.4375q-0.9375 0 -1.390625 0.328125q-0.4375 0.3125 -0.640625 1.140625l-1.296875 -0.171875q0.171875 -0.828125 0.578125 -1.328125q0.40625 -0.515625 1.171875 -0.78125q0.765625 -0.28125 1.765625 -0.28125q1.0 0 1.609375 0.234375q0.625 0.234375 0.921875 0.59375q0.296875 0.34375 0.40625 0.890625q0.0625 0.34375 0.0625 1.21875l0 1.75q0 1.84375 0.078125 2.328125q0.09375 0.484375 0.34375 0.9375l-1.375 0q-0.203125 -0.40625 -0.265625 -0.953125zm-0.109375 -2.953125q-0.71875 0.296875 -2.15625 0.5q-0.8125 0.125 -1.15625 0.265625q-0.328125 0.140625 -0.515625 0.421875q-0.171875 0.28125 -0.171875 0.625q0 0.53125 0.390625 0.890625q0.40625 0.34375 1.171875 0.34375q0.765625 0 1.359375 -0.328125q0.59375 -0.34375 0.875 -0.921875q0.203125 -0.4375 0.203125 -1.3125l0 -0.484375zm3.166748 3.90625l0 -7.78125l1.1875 0l0 1.1875q0.453125 -0.828125 0.84375 -1.09375q0.390625 -0.265625 0.84375 -0.265625q0.671875 0 1.359375 0.421875l-0.453125 1.21875q-0.484375 -0.28125 -0.96875 -0.28125q-0.4375 0 -0.78125 0.265625q-0.34375 0.25 -0.484375 0.71875q-0.21875 0.703125 -0.21875 1.53125l0 4.078125l-1.328125 0zm7.786865 -1.171875l0.1875 1.15625q-0.5625 0.125 -1.0 0.125q-0.71875 0 -1.125 -0.234375q-0.390625 -0.234375 -0.546875 -0.59375q-0.15625 -0.375 -0.15625 -1.5625l0 -4.46875l-0.96875 0l0 -1.03125l0.96875 0l0 -1.921875l1.3125 -0.796875l0 2.71875l1.328125 0l0 1.03125l-1.328125 0l0 4.546875q0 0.5625 0.0625 0.734375q0.078125 0.15625 0.234375 0.25q0.15625 0.09375 0.4375 0.09375q0.234375 0 0.59375 -0.046875zm5.675232 1.171875l0 -10.734375l1.40625 0l0 10.734375l-1.40625 0zm4.0719604 0l0 -10.734375l1.40625 0l0 10.734375l-1.40625 0z" fill-rule="nonzero"></path><path fill="#000000" fill-opacity="0.0" d="m360.59842 96.0c0 8.8365555 -12.592438 16.0 -28.125977 16.0l0 0c-15.533539 0 -28.125977 7.1634445 -28.125977 16.0l0 0c0 -8.8365555 -12.592438 -16.0 -28.126007 -16.0l0 0l0 0c-15.533539 0 -28.125977 -7.1634445 -28.125977 -16.0z" fill-rule="nonzero"></path><path fill="#000000" fill-opacity="0.0" d="m360.59842 96.0c0 8.8365555 -12.592438 16.0 -28.125977 16.0l0 0c-15.533539 0 -28.125977 7.1634445 -28.125977 16.0l0 0c0 -8.8365555 -12.592438 -16.0 -28.126007 -16.0l0 0l0 0c-15.533539 0 -28.125977 -7.1634445 -28.125977 -16.0" fill-rule="nonzero"></path><path stroke="#000000" stroke-width="2.0" stroke-linejoin="round" stroke-linecap="butt" d="m360.59842 96.0c0 8.8365555 -12.592438 16.0 -28.125977 16.0l0 0c-15.533539 0 -28.125977 7.1634445 -28.125977 16.0l0 0c0 -8.8365555 -12.592438 -16.0 -28.126007 -16.0l0 0l0 0c-15.533539 0 -28.125977 -7.1634445 -28.125977 -16.0" fill-rule="nonzero"></path><path fill="#000000" fill-opacity="0.0" d="m248.09448 136.0l119.49606 0l0 31.496063l-119.49606 0z" fill-rule="nonzero"></path><path fill="#000000" d="m295.44882 156.58397l0 -9.46875l-3.53125 0l0 -1.265625l8.5 0l0 1.265625l-3.546875 0l0 9.46875l-1.421875 0zm6.061981 -9.21875l0 -1.515625l1.3125 0l0 1.515625l-1.3125 0zm0 9.21875l0 -7.78125l1.3125 0l0 7.78125l-1.3125 0zm3.2405396 0l0 -7.78125l1.1875 0l0 1.09375q0.359375 -0.578125 0.96875 -0.921875q0.609375 -0.34375 1.390625 -0.34375q0.859375 0 1.40625 0.359375q0.5625 0.359375 0.78125 1.0q0.921875 -1.359375 2.40625 -1.359375q1.15625 0 1.78125 0.640625q0.625 0.640625 0.625 1.96875l0 5.34375l-1.3125 0l0 -4.90625q0 -0.78125 -0.125 -1.125q-0.125 -0.359375 -0.46875 -0.5625q-0.34375 -0.21875 -0.796875 -0.21875q-0.8125 0 -1.359375 0.546875q-0.546875 0.546875 -0.546875 1.75l0 4.515625l-1.3125 0l0 -5.046875q0 -0.890625 -0.328125 -1.328125q-0.3125 -0.4375 -1.046875 -0.4375q-0.5625 0 -1.03125 0.296875q-0.46875 0.296875 -0.6875 0.859375q-0.203125 0.5625 -0.203125 1.625l0 4.03125l-1.328125 0zm17.536896 -2.5l1.359375 0.15625q-0.3125 1.203125 -1.1875 1.859375q-0.875 0.65625 -2.234375 0.65625q-1.703125 0 -2.703125 -1.046875q-1.0 -1.046875 -1.0 -2.953125q0 -1.953125 1.015625 -3.03125q1.015625 -1.09375 2.625 -1.09375q1.5625 0 2.546875 1.0625q0.984375 1.0625 0.984375 2.984375q0 0.125 0 0.359375l-5.8125 0q0.078125 1.28125 0.71875 1.96875q0.65625 0.671875 1.640625 0.671875q0.71875 0 1.234375 -0.375q0.515625 -0.390625 0.8125 -1.21875zm-4.328125 -2.140625l4.34375 0q-0.09375 -0.984375 -0.5 -1.46875q-0.625 -0.765625 -1.625 -0.765625q-0.921875 0 -1.546875 0.609375q-0.609375 0.609375 -0.671875 1.625z" fill-rule="nonzero"></path><path fill="#000000" fill-opacity="0.0" d="m104.0 16.503937l104.50394 0l0 23.496063l-104.50394 0z" fill-rule="nonzero"></path><path fill="#000000" d="m131.6773 32.650406l0 -9.3125l1.84375 0l2.203125 6.59375q0.3125 0.921875 0.453125 1.375q0.15625 -0.5 0.484375 -1.484375l2.234375 -6.484375l1.65625 0l0 9.3125l-1.1875 0l0 -7.78125l-2.703125 7.78125l-1.109375 0l-2.6875 -7.921875l0 7.921875l-1.1875 0zm11.164917 0l0 -9.3125l6.71875 0l0 1.109375l-5.484375 0l0 2.84375l5.140625 0l0 1.09375l-5.140625 0l0 3.171875l5.703125 0l0 1.09375l-6.9375 0zm11.2335205 0l0 -8.203125l-3.0625 0l0 -1.109375l7.375 0l0 1.109375l-3.078125 0l0 8.203125l-1.234375 0zm5.7819824 0l0 -9.3125l4.125 0q1.25 0 1.890625 0.265625q0.65625 0.25 1.046875 0.890625q0.390625 0.625 0.390625 1.390625q0 0.984375 -0.65625 1.671875q-0.640625 0.671875 -1.96875 0.859375q0.484375 0.234375 0.734375 0.46875q0.546875 0.484375 1.03125 1.234375l1.609375 2.53125l-1.546875 0l-1.234375 -1.9375q-0.53125 -0.84375 -0.890625 -1.28125q-0.34375 -0.4375 -0.625 -0.609375q-0.265625 -0.1875 -0.546875 -0.265625q-0.21875 -0.03125 -0.6875 -0.03125l-1.4375 0l0 4.125l-1.234375 0zm1.234375 -5.203125l2.65625 0q0.84375 0 1.3125 -0.171875q0.484375 -0.171875 0.71875 -0.546875q0.25 -0.390625 0.25 -0.84375q0 -0.65625 -0.484375 -1.078125q-0.46875 -0.4375 -1.5 -0.4375l-2.953125 0l0 3.078125zm8.593903 5.203125l0 -9.3125l1.21875 0l0 9.3125l-1.21875 0zm10.124847 -3.265625l1.234375 0.3125q-0.390625 1.515625 -1.40625 2.3125q-1.0 0.796875 -2.453125 0.796875q-1.5 0 -2.453125 -0.609375q-0.9375 -0.609375 -1.4375 -1.765625q-0.484375 -1.171875 -0.484375 -2.5q0 -1.453125 0.5625 -2.53125q0.5625 -1.09375 1.578125 -1.65625q1.03125 -0.5625 2.265625 -0.5625q1.390625 0 2.34375 0.71875q0.953125 0.703125 1.328125 2.0l-1.21875 0.28125q-0.328125 -1.015625 -0.9375 -1.46875q-0.609375 -0.46875 -1.546875 -0.46875q-1.078125 0 -1.796875 0.515625q-0.71875 0.515625 -1.015625 1.375q-0.28125 0.859375 -0.28125 1.78125q0 1.1875 0.34375 2.078125q0.34375 0.890625 1.0625 1.328125q0.734375 0.4375 1.59375 0.4375q1.03125 0 1.75 -0.59375q0.71875 -0.609375 0.96875 -1.78125z" fill-rule="nonzero"></path><path fill="#000000" fill-opacity="0.0" d="m72.50394 60.0l0 0c0 -6.6274185 13.617668 -12.0 30.415916 -12.0l99.16816 0l0 0c16.798248 0 30.415924 5.3725815 30.415924 12.0z" fill-rule="nonzero"></path><path fill="#000000" fill-opacity="0.0" d="m72.50394 60.0l0 0c0 -6.6274185 13.617668 -12.0 30.415916 -12.0l99.16816 0l0 0c16.798248 0 30.415924 5.3725815 30.415924 12.0" fill-rule="nonzero"></path><path stroke="#000000" stroke-width="2.0" stroke-linejoin="round" stroke-linecap="butt" d="m72.50394 60.0l0 0c0 -6.6274185 13.617668 -12.0 30.415916 -12.0l99.16816 0l0 0c16.798248 0 30.415924 5.3725815 30.415924 12.0" fill-rule="nonzero"></path><path fill="#000000" fill-opacity="0.0" d="m425.0118 60.0l0 0c0 -6.6274185 13.617676 -12.0 30.415924 -12.0l26.160278 0l0 0c16.798248 0 30.415955 5.3725815 30.415955 12.0z" fill-rule="nonzero"></path><path fill="#000000" fill-opacity="0.0" d="m425.0118 60.0l0 0c0 -6.6274185 13.617676 -12.0 30.415924 -12.0l26.160278 0l0 0c16.798248 0 30.415955 5.3725815 30.415955 12.0" fill-rule="nonzero"></path><path stroke="#000000" stroke-width="2.0" stroke-linejoin="round" stroke-linecap="butt" d="m425.0118 60.0l0 0c0 -6.6274185 13.617676 -12.0 30.415924 -12.0l26.160278 0l0 0c16.798248 0 30.415955 5.3725815 30.415955 12.0" fill-rule="nonzero"></path><path fill="#000000" fill-opacity="0.0" d="m416.50394 16.0l104.50394 0l0 23.496063l-104.50394 0z" fill-rule="nonzero"></path><path fill="#000000" d="m458.43182 32.14647l0 -8.203125l-3.0625 0l0 -1.109375l7.375 0l0 1.109375l-3.078125 0l0 8.203125l-1.234375 0zm4.7507324 0l3.578125 -9.3125l1.3125 0l3.8125 9.3125l-1.40625 0l-1.078125 -2.8125l-3.890625 0l-1.03125 2.8125l-1.296875 0zm2.6875 -3.828125l3.15625 0l-0.984375 -2.578125q-0.4375 -1.171875 -0.65625 -1.921875q-0.171875 0.890625 -0.5 1.78125l-1.015625 2.71875zm11.5772705 0.171875l0 -1.078125l3.9375 -0.015625l0 3.453125q-0.90625 0.71875 -1.875 1.09375q-0.953125 0.359375 -1.96875 0.359375q-1.375 0 -2.5 -0.578125q-1.125 -0.59375 -1.703125 -1.703125q-0.5625 -1.109375 -0.5625 -2.484375q0 -1.359375 0.5625 -2.53125q0.578125 -1.1875 1.640625 -1.75q1.078125 -0.578125 2.453125 -0.578125q1.015625 0 1.828125 0.328125q0.8125 0.328125 1.28125 0.921875q0.46875 0.578125 0.703125 1.515625l-1.109375 0.296875q-0.203125 -0.703125 -0.515625 -1.109375q-0.3125 -0.40625 -0.890625 -0.640625q-0.578125 -0.25 -1.28125 -0.25q-0.84375 0 -1.46875 0.265625q-0.609375 0.25 -0.984375 0.671875q-0.375 0.40625 -0.59375 0.90625q-0.34375 0.875 -0.34375 1.875q0 1.25 0.421875 2.09375q0.421875 0.828125 1.234375 1.234375q0.828125 0.40625 1.75 0.40625q0.796875 0 1.5625 -0.296875q0.765625 -0.3125 1.15625 -0.671875l0 -1.734375l-2.734375 0z" fill-rule="nonzero"></path><path fill="#000000" fill-opacity="0.0" d="m528.00397 60.0l0 0c0 -6.6274185 13.617615 -12.0 30.415894 -12.0l34.664246 0l0 0c16.798218 0 30.415894 5.3725815 30.415894 12.0z" fill-rule="nonzero"></path><path fill="#000000" fill-opacity="0.0" d="m528.00397 60.0l0 0c0 -6.6274185 13.617615 -12.0 30.415894 -12.0l34.664246 0l0 0c16.798218 0 30.415894 5.3725815 30.415894 12.0" fill-rule="nonzero"></path><path stroke="#000000" stroke-width="2.0" stroke-linejoin="round" stroke-linecap="butt" d="m528.00397 60.0l0 0c0 -6.6274185 13.617615 -12.0 30.415894 -12.0l34.664246 0l0 0c16.798218 0 30.415894 5.3725815 30.415894 12.0" fill-rule="nonzero"></path><path fill="#000000" fill-opacity="0.0" d="m520.0 16.0l104.50397 0l0 23.496063l-104.50397 0z" fill-rule="nonzero"></path><path fill="#000000" d="m561.92786 32.14647l0 -8.203125l-3.0625 0l0 -1.109375l7.375 0l0 1.109375l-3.078125 0l0 8.203125l-1.234375 0zm4.7507324 0l3.578125 -9.3125l1.3125 0l3.8125 9.3125l-1.40625 0l-1.078125 -2.8125l-3.890625 0l-1.03125 2.8125l-1.296875 0zm2.6875 -3.828125l3.15625 0l-0.984375 -2.578125q-0.4375 -1.171875 -0.65625 -1.921875q-0.171875 0.890625 -0.5 1.78125l-1.015625 2.71875zm11.5772705 0.171875l0 -1.078125l3.9375 -0.015625l0 3.453125q-0.90625 0.71875 -1.875 1.09375q-0.953125 0.359375 -1.96875 0.359375q-1.375 0 -2.5 -0.578125q-1.125 -0.59375 -1.703125 -1.703125q-0.5625 -1.109375 -0.5625 -2.484375q0 -1.359375 0.5625 -2.53125q0.578125 -1.1875 1.640625 -1.75q1.078125 -0.578125 2.453125 -0.578125q1.015625 0 1.828125 0.328125q0.8125 0.328125 1.28125 0.921875q0.46875 0.578125 0.703125 1.515625l-1.109375 0.296875q-0.203125 -0.703125 -0.515625 -1.109375q-0.3125 -0.40625 -0.890625 -0.640625q-0.578125 -0.25 -1.28125 -0.25q-0.84375 0 -1.46875 0.265625q-0.609375 0.25 -0.984375 0.671875q-0.375 0.40625 -0.59375 0.90625q-0.34375 0.875 -0.34375 1.875q0 1.25 0.421875 2.09375q0.421875 0.828125 1.234375 1.234375q0.828125 0.40625 1.75 0.40625q0.796875 0 1.5625 -0.296875q0.765625 -0.3125 1.15625 -0.671875l0 -1.734375l-2.734375 0z" fill-rule="nonzero"></path><path fill="#000000" fill-opacity="0.0" d="m368.50787 56.0l0 0c0 -6.6274185 10.519531 -12.0 23.496063 -12.0l0 0l0 0c12.976532 0 23.496063 5.3725815 23.496063 12.0z" fill-rule="nonzero"></path><path fill="#000000" fill-opacity="0.0" d="m368.50787 56.0l0 0c0 -6.6274185 10.519531 -12.0 23.496063 -12.0l0 0l0 0c12.976532 0 23.496063 5.3725815 23.496063 12.0" fill-rule="nonzero"></path><path stroke="#000000" stroke-width="2.0" stroke-linejoin="round" stroke-linecap="butt" d="m368.50787 56.0l0 0c0 -6.6274185 10.519531 -12.0 23.496063 -12.0l0 0l0 0c12.976532 0 23.496063 5.3725815 23.496063 12.0" fill-rule="nonzero"></path><path fill="#000000" fill-opacity="0.0" d="m336.50394 16.0l104.50394 0l0 23.496063l-104.50394 0z" fill-rule="nonzero"></path><path fill="#000000" d="m370.55872 32.14647l-3.59375 -9.3125l1.328125 0l2.421875 6.765625q0.28125 0.8125 0.484375 1.53125q0.21875 -0.765625 0.5 -1.53125l2.515625 -6.765625l1.25 0l-3.640625 9.3125l-1.265625 0zm5.217865 0l3.578125 -9.3125l1.3125 0l3.8125 9.3125l-1.40625 0l-1.078125 -2.8125l-3.890625 0l-1.03125 2.8125l-1.296875 0zm2.6875 -3.828125l3.15625 0l-0.984375 -2.578125q-0.4375 -1.171875 -0.65625 -1.921875q-0.171875 0.890625 -0.5 1.78125l-1.015625 2.71875zm7.1710205 3.828125l0 -9.3125l1.234375 0l0 8.21875l4.578125 0l0 1.09375l-5.8125 0zm13.568726 -9.3125l1.234375 0l0 5.390625q0 1.390625 -0.328125 2.21875q-0.3125 0.828125 -1.140625 1.34375q-0.828125 0.515625 -2.171875 0.515625q-1.3125 0 -2.140625 -0.453125q-0.828125 -0.453125 -1.1875 -1.296875q-0.359375 -0.859375 -0.359375 -2.328125l0 -5.390625l1.234375 0l0 5.375q0 1.21875 0.21875 1.796875q0.234375 0.5625 0.78125 0.875q0.546875 0.3125 1.34375 0.3125q1.359375 0 1.9375 -0.609375q0.578125 -0.625 0.578125 -2.375l0 -5.375zm3.5470276 9.3125l0 -9.3125l6.71875 0l0 1.109375l-5.484375 0l0 2.84375l5.140625 0l0 1.09375l-5.140625 0l0 3.171875l5.703125 0l0 1.09375l-6.9375 0z" fill-rule="nonzero"></path></g></svg>

